<?xml version="1.0" encoding="UTF-8" standalone="no"?>
<svg
   version="1.1"
   viewBox="0 0 1152 530"
   fill="none"
   stroke="none"
   stroke-linecap="square"
   stroke-miterlimit="10"
   id="svg2016"
   sodipodi:docname="NetworkingModel.svg"
   width="1152"
   height="530"
   inkscape:version="1.1.1 (3bf5ae0d25, 2021-09-20)"
   xmlns:inkscape="http://www.inkscape.org/namespaces/inkscape"
   xmlns:sodipodi="http://sodipodi.sourceforge.net/DTD/sodipodi-0.dtd"
   xmlns="http://www.w3.org/2000/svg"
   xmlns:svg="http://www.w3.org/2000/svg">
  <defs
     id="defs2020" />
  <sodipodi:namedview
     id="namedview2018"
     pagecolor="#ffffff"
     bordercolor="#666666"
     borderopacity="1.0"
     inkscape:pageshadow="2"
     inkscape:pageopacity="0.0"
     inkscape:pagecheckerboard="0"
     showgrid="false"
     inkscape:zoom="0.45920139"
     inkscape:cx="440.98299"
     inkscape:cy="547.68998"
     inkscape:window-width="1848"
     inkscape:window-height="1057"
     inkscape:window-x="64"
     inkscape:window-y="-7"
     inkscape:window-maximized="1"
     inkscape:current-layer="svg2016" />
  <clipPath
     id="p.0">
    <path
       d="M 0,0 H 1152 V 864 H 0 Z"
       clip-rule="nonzero"
       id="path1915" />
  </clipPath>
  <g
     clip-path="url(#p.0)"
     id="g2014">
    <path
       fill="#000000"
       fill-opacity="0"
       d="M 0,0 H 1152 V 864 H 0 Z"
       fill-rule="evenodd"
       id="path1918" />
    <path
       fill="#000000"
       fill-opacity="0"
       d="M 3.4855642,1.824147 H 369.69026 V 433.32021 H 3.4855642 Z"
       fill-rule="evenodd"
       id="path1920" />
    <path
       stroke="#000000"
       stroke-width="1"
       stroke-linejoin="round"
       stroke-linecap="butt"
       d="M 3.4855642,1.824147 H 369.69026 V 433.32021 H 3.4855642 Z"
       fill-rule="evenodd"
       id="path1922" />
    <path
       fill="#000000"
       fill-opacity="0"
       d="m 392.83203,1.824147 h 366.2047 V 433.32021 h -366.2047 z"
       fill-rule="evenodd"
       id="path1924" />
    <path
       stroke="#000000"
       stroke-width="1"
       stroke-linejoin="round"
       stroke-linecap="butt"
       d="m 392.83203,1.824147 h 366.2047 V 433.32021 h -366.2047 z"
       fill-rule="evenodd"
       id="path1926" />
    <path
       fill="#000000"
       fill-opacity="0"
       d="M 782.17847,1.824147 H 1148.3832 V 433.32021 H 782.17847 Z"
       fill-rule="evenodd"
       id="path1928" />
    <path
       stroke="#000000"
       stroke-width="1"
       stroke-linejoin="round"
       stroke-linecap="butt"
       d="M 782.17847,1.824147 H 1148.3832 V 433.32021 H 782.17847 Z"
       fill-rule="evenodd"
       id="path1930" />
    <path
       fill="#cfe2f3"
       d="M 64.68241,169.11285 H 308.49345 V 341.49081 H 64.68241 Z"
       fill-rule="evenodd"
       id="path1932" />
    <path
       stroke="#000000"
       stroke-width="1"
       stroke-linejoin="round"
       stroke-linecap="butt"
       d="M 64.68241,169.11285 H 308.49345 V 341.49081 H 64.68241 Z"
       fill-rule="evenodd"
       id="path1934" />
    <path
       fill="#000000"
       d="m 159.50815,196.03285 v -13.35938 h 5.04687 q 1.32813,0 2.03125,0.125 0.96875,0.17188 1.64063,0.64063 0.67187,0.45312 1.07812,1.28125 0.40625,0.82812 0.40625,1.82812 0,1.70313 -1.09375,2.89063 -1.07812,1.17187 -3.92187,1.17187 h -3.42188 v 5.42188 z m 1.76562,-7 h 3.45313 q 1.71875,0 2.4375,-0.64063 0.71875,-0.64062 0.71875,-1.79687 0,-0.84375 -0.42188,-1.4375 -0.42187,-0.59375 -1.125,-0.78125 -0.4375,-0.125 -1.64062,-0.125 h -3.42188 z m 16.78733,5.8125 q -0.92188,0.76562 -1.76563,1.09375 -0.82812,0.3125 -1.79687,0.3125 -1.59375,0 -2.45313,-0.78125 -0.85937,-0.78125 -0.85937,-1.98438 0,-0.71875 0.32812,-1.29687 0.32813,-0.59375 0.84375,-0.9375 0.53125,-0.35938 1.1875,-0.54688 0.46875,-0.125 1.45313,-0.25 1.98437,-0.23437 2.92187,-0.5625 0.0156,-0.34375 0.0156,-0.42187 0,-1 -0.46875,-1.42188 -0.625,-0.54687 -1.875,-0.54687 -1.15625,0 -1.70313,0.40625 -0.54687,0.40625 -0.8125,1.42187 l -1.60937,-0.21875 q 0.21875,-1.01562 0.71875,-1.64062 0.5,-0.64063 1.45312,-0.98438 0.95313,-0.34375 2.1875,-0.34375 1.25,0 2.01563,0.29688 0.78125,0.28125 1.14062,0.73437 0.375,0.4375 0.51563,1.10938 0.0781,0.42187 0.0781,1.51562 v 2.1875 q 0,2.28125 0.10938,2.89063 0.10937,0.59375 0.40625,1.15625 h -1.70313 q -0.26562,-0.51563 -0.32812,-1.1875 z m -0.14063,-3.67188 q -0.89062,0.375 -2.67187,0.625 -1.01563,0.14063 -1.4375,0.32813 -0.42188,0.1875 -0.65625,0.53125 -0.21875,0.34375 -0.21875,0.78125 0,0.65625 0.5,1.09375 0.5,0.4375 1.45312,0.4375 0.9375,0 1.67188,-0.40625 0.75,-0.42188 1.09375,-1.14063 0.26562,-0.5625 0.26562,-1.64062 z m 10.51635,1.3125 1.60937,0.21875 q -0.26562,1.65625 -1.35937,2.60938 -1.07813,0.9375 -2.67188,0.9375 -1.98437,0 -3.1875,-1.29688 -1.20312,-1.29687 -1.20312,-3.71875 0,-1.57812 0.51562,-2.75 0.51563,-1.17187 1.57813,-1.75 1.0625,-0.59375 2.3125,-0.59375 1.57812,0 2.57812,0.79688 1,0.79687 1.28125,2.26562 l -1.59375,0.23438 q -0.23437,-0.96875 -0.8125,-1.45313 -0.57812,-0.5 -1.39062,-0.5 -1.23438,0 -2.01563,0.89063 -0.78125,0.89062 -0.78125,2.8125 0,1.95312 0.75,2.84375 0.75,0.875 1.95313,0.875 0.96875,0 1.60937,-0.59375 0.65625,-0.59375 0.82813,-1.82813 z m 3.01562,3.54688 v -13.35938 h 1.64063 v 7.625 l 3.89062,-3.9375 h 2.10938 l -3.6875,3.59375 4.0625,6.07813 h -2.01563 l -3.20312,-4.95313 -1.15625,1.125 v 3.82813 z m 15.95313,-3.10938 1.6875,0.20313 q -0.40625,1.48437 -1.48438,2.3125 -1.07812,0.8125 -2.76562,0.8125 -2.125,0 -3.375,-1.29688 -1.23438,-1.3125 -1.23438,-3.67187 0,-2.45313 1.25,-3.79688 1.26563,-1.34375 3.26563,-1.34375 1.9375,0 3.15625,1.32813 1.23437,1.3125 1.23437,3.70312 0,0.15625 0,0.4375 h -7.21875 q 0.0937,1.59375 0.90625,2.45313 0.8125,0.84375 2.01563,0.84375 0.90625,0 1.54687,-0.46875 0.64063,-0.48438 1.01563,-1.51563 z m -5.39063,-2.65625 h 5.40625 q -0.10937,-1.21875 -0.625,-1.82812 -0.78125,-0.95313 -2.03125,-0.95313 -1.125,0 -1.90625,0.76563 -0.76562,0.75 -0.84375,2.01562 z m 12.71947,4.29688 0.23437,1.45312 q -0.6875,0.14063 -1.23437,0.14063 -0.89063,0 -1.39063,-0.28125 -0.48437,-0.28125 -0.6875,-0.73438 -0.20312,-0.46875 -0.20312,-1.9375 v -5.57812 h -1.20313 v -1.26563 h 1.20313 v -2.39062 l 1.625,-0.98438 v 3.375 h 1.65625 v 1.26563 h -1.65625 v 5.67187 q 0,0.6875 0.0781,0.89063 0.0937,0.20312 0.28125,0.32812 0.20313,0.10938 0.57813,0.10938 0.26562,0 0.71875,-0.0625 z"
       fill-rule="nonzero"
       id="path1936" />
    <path
       fill="#cfe2f3"
       d="M 84.068245,213.99738 H 289.10761 V 323.13123 H 84.068245 Z"
       fill-rule="evenodd"
       id="path1938" />
    <path
       stroke="#000000"
       stroke-width="1"
       stroke-linejoin="round"
       stroke-linecap="butt"
       d="M 84.068245,213.99738 H 289.10761 V 323.13123 H 84.068245 Z"
       fill-rule="evenodd"
       id="path1940" />
    <path
       fill="#000000"
       d="m 113.04925,266.7393 q 0.71875,0 1.40625,0.375 0.6875,0.35938 1.0625,1.0625 0.39063,0.6875 0.39063,1.42188 0,1.1875 -0.84375,2.03125 -0.82813,0.84375 -2.01563,0.84375 -1.1875,0 -2.03125,-0.84375 -0.84375,-0.84375 -0.84375,-2.03125 0,-0.75 0.375,-1.4375 0.39063,-0.6875 1.07813,-1.04688 0.70312,-0.375 1.42187,-0.375 z"
       fill-rule="nonzero"
       id="path1942" />
    <path
       fill="#000000"
       d="m 144.52136,273.3643 v -8.42187 h -3.14063 v -1.125 h 7.5625 v 1.125 h -3.15625 v 8.42187 z m 5.08406,-8.1875 v -1.35937 h 1.17188 v 1.35937 z m 0,8.1875 v -6.90625 h 1.17188 v 6.90625 z m 2.94547,0 v -6.90625 h 1.04687 v 0.96875 q 0.32813,-0.51562 0.85938,-0.8125 0.54687,-0.3125 1.23437,-0.3125 0.78125,0 1.26563,0.3125 0.48437,0.3125 0.6875,0.89063 0.82812,-1.20313 2.14062,-1.20313 1.03125,0 1.57813,0.57813 0.5625,0.5625 0.5625,1.73437 v 4.75 h -1.17188 v -4.35937 q 0,-0.70313 -0.125,-1 -0.10937,-0.3125 -0.40625,-0.5 -0.29687,-0.1875 -0.70312,-0.1875 -0.71875,0 -1.20313,0.48437 -0.48437,0.48438 -0.48437,1.54688 v 4.01562 h -1.17188 v -4.48437 q 0,-0.78125 -0.29687,-1.17188 -0.28125,-0.39062 -0.92188,-0.39062 -0.5,0 -0.92187,0.26562 -0.42188,0.25 -0.60938,0.75 -0.1875,0.5 -0.1875,1.45313 v 3.57812 z m 15.8368,-2.21875 1.20313,0.14063 q -0.28125,1.0625 -1.0625,1.65625 -0.76563,0.57812 -1.96875,0.57812 -1.51563,0 -2.40625,-0.9375 -0.89063,-0.9375 -0.89063,-2.60937 0,-1.75 0.89063,-2.70313 0.90625,-0.96875 2.34375,-0.96875 1.39062,0 2.26562,0.9375 0.875,0.9375 0.875,2.65625 0,0.10938 0,0.3125 h -5.15625 q 0.0625,1.14063 0.64063,1.75 0.57812,0.59375 1.4375,0.59375 0.65625,0 1.10937,-0.32812 0.45313,-0.34375 0.71875,-1.07813 z m -3.84375,-1.90625 h 3.85938 q -0.0781,-0.85937 -0.4375,-1.29687 -0.5625,-0.6875 -1.45313,-0.6875 -0.8125,0 -1.35937,0.54687 -0.54688,0.53125 -0.60938,1.4375 z m 6.0531,2.0625 1.15625,-0.1875 q 0.10938,0.70313 0.54688,1.07813 0.45312,0.35937 1.25,0.35937 0.8125,0 1.20312,-0.32812 0.39063,-0.32813 0.39063,-0.76563 0,-0.39062 -0.35938,-0.625 -0.23437,-0.15625 -1.1875,-0.39062 -1.29687,-0.32813 -1.79687,-0.5625 -0.48438,-0.25 -0.75,-0.65625 -0.25,-0.42188 -0.25,-0.9375 0,-0.45313 0.20312,-0.84375 0.21875,-0.40625 0.57813,-0.67188 0.28125,-0.1875 0.75,-0.32812 0.46875,-0.14063 1.01562,-0.14063 0.8125,0 1.42188,0.23438 0.60937,0.23437 0.90625,0.64062 0.29687,0.39063 0.40625,1.0625 l -1.14063,0.15625 q -0.0781,-0.53125 -0.45312,-0.82812 -0.375,-0.3125 -1.0625,-0.3125 -0.8125,0 -1.15625,0.26562 -0.34375,0.26563 -0.34375,0.625 0,0.23438 0.14062,0.42188 0.15625,0.1875 0.45313,0.3125 0.17187,0.0625 1.03125,0.29687 1.25,0.32813 1.73437,0.54688 0.5,0.20312 0.78125,0.60937 0.28125,0.40625 0.28125,1 0,0.59375 -0.34375,1.10938 -0.34375,0.51562 -1,0.79687 -0.64062,0.28125 -1.45312,0.28125 -1.34375,0 -2.04688,-0.5625 -0.70312,-0.5625 -0.90625,-1.65625 z m 9.69532,1.01563 0.17187,1.03125 q -0.5,0.10937 -0.89062,0.10937 -0.64063,0 -1,-0.20312 -0.34375,-0.20313 -0.48438,-0.53125 -0.14062,-0.32813 -0.14062,-1.39063 v -3.96875 h -0.85938 v -0.90625 h 0.85938 v -1.71875 l 1.17187,-0.70312 v 2.42187 h 1.17188 v 0.90625 h -1.17188 v 4.04688 q 0,0.5 0.0469,0.64062 0.0625,0.14063 0.20312,0.23438 0.14063,0.0781 0.40625,0.0781 0.20313,0 0.51563,-0.0469 z m 5.65611,0.1875 q -0.65625,0.5625 -1.26563,0.79687 -0.59375,0.21875 -1.28125,0.21875 -1.14062,0 -1.75,-0.54687 -0.60937,-0.5625 -0.60937,-1.4375 0,-0.5 0.21875,-0.92188 0.23437,-0.42187 0.60937,-0.67187 0.375,-0.25 0.84375,-0.39063 0.34375,-0.0781 1.04688,-0.17187 1.42187,-0.17188 2.09375,-0.40625 0,-0.23438 0,-0.29688 0,-0.71875 -0.32813,-1.01562 -0.45312,-0.39063 -1.34375,-0.39063 -0.8125,0 -1.21875,0.29688 -0.39062,0.28125 -0.57812,1.01562 l -1.14063,-0.15625 q 0.15625,-0.73437 0.51563,-1.1875 0.35937,-0.45312 1.03125,-0.6875 0.67187,-0.25 1.5625,-0.25 0.89062,0 1.4375,0.20313 0.5625,0.20312 0.8125,0.53125 0.26562,0.3125 0.375,0.79687 0.0469,0.29688 0.0469,1.07813 v 1.5625 q 0,1.625 0.0781,2.0625 0.0781,0.4375 0.29687,0.82812 h -1.21875 q -0.1875,-0.35937 -0.23437,-0.85937 z m -0.0937,-2.60938 q -0.64063,0.26563 -1.92188,0.4375 -0.71875,0.10938 -1.01562,0.25 -0.29688,0.125 -0.46875,0.375 -0.15625,0.25 -0.15625,0.54688 0,0.46875 0.34375,0.78125 0.35937,0.3125 1.04687,0.3125 0.67188,0 1.20313,-0.29688 0.53125,-0.29687 0.78125,-0.8125 0.1875,-0.39062 0.1875,-1.17187 z m 2.9906,3.46875 v -6.90625 h 1.04687 v 0.96875 q 0.32813,-0.51562 0.85938,-0.8125 0.54687,-0.3125 1.23437,-0.3125 0.78125,0 1.26563,0.3125 0.48437,0.3125 0.6875,0.89063 0.82812,-1.20313 2.14062,-1.20313 1.03125,0 1.57813,0.57813 0.5625,0.5625 0.5625,1.73437 v 4.75 h -1.17188 v -4.35937 q 0,-0.70313 -0.125,-1 -0.10937,-0.3125 -0.40625,-0.5 -0.29687,-0.1875 -0.70312,-0.1875 -0.71875,0 -1.20313,0.48437 -0.48437,0.48438 -0.48437,1.54688 v 4.01562 h -1.17188 v -4.48437 q 0,-0.78125 -0.29687,-1.17188 -0.28125,-0.39062 -0.92188,-0.39062 -0.5,0 -0.92187,0.26562 -0.42188,0.25 -0.60938,0.75 -0.1875,0.5 -0.1875,1.45313 v 3.57812 z m 11.10243,2.65625 v -9.5625 h 1.07813 v 0.89063 q 0.375,-0.53125 0.84375,-0.78125 0.48437,-0.26563 1.15625,-0.26563 0.875,0 1.54687,0.45313 0.6875,0.45312 1.03125,1.28125 0.34375,0.82812 0.34375,1.82812 0,1.04688 -0.375,1.90625 -0.375,0.84375 -1.10937,1.29688 -0.71875,0.45312 -1.53125,0.45312 -0.57813,0 -1.04688,-0.25 -0.46875,-0.25 -0.76562,-0.625 v 3.375 z m 1.0625,-6.07812 q 0,1.34375 0.53125,1.98437 0.54688,0.625 1.3125,0.625 0.78125,0 1.34375,-0.65625 0.5625,-0.65625 0.5625,-2.04687 0,-1.3125 -0.54687,-1.96875 -0.54688,-0.67188 -1.29688,-0.67188 -0.75,0 -1.32812,0.70313 -0.57813,0.70312 -0.57813,2.03125 z"
       fill-rule="nonzero"
       id="path1944" />
    <path
       fill="#cfe2f3"
       d="M 454.02887,169.11285 H 697.83991 V 341.49081 H 454.02887 Z"
       fill-rule="evenodd"
       id="path1946" />
    <path
       stroke="#000000"
       stroke-width="1"
       stroke-linejoin="round"
       stroke-linecap="butt"
       d="M 454.02887,169.11285 H 697.83991 V 341.49081 H 454.02887 Z"
       fill-rule="evenodd"
       id="path1948" />
    <path
       fill="#000000"
       d="m 548.8546,196.03285 v -13.35938 h 5.04687 q 1.32813,0 2.03125,0.125 0.96875,0.17188 1.64063,0.64063 0.67187,0.45312 1.07812,1.28125 0.40625,0.82812 0.40625,1.82812 0,1.70313 -1.09375,2.89063 -1.07812,1.17187 -3.92187,1.17187 h -3.42188 v 5.42188 z m 1.76562,-7 h 3.45313 q 1.71875,0 2.4375,-0.64063 0.71875,-0.64062 0.71875,-1.79687 0,-0.84375 -0.42188,-1.4375 -0.42187,-0.59375 -1.125,-0.78125 -0.4375,-0.125 -1.64062,-0.125 h -3.42188 z m 16.7873,5.8125 q -0.92188,0.76562 -1.76563,1.09375 -0.82812,0.3125 -1.79687,0.3125 -1.59375,0 -2.45313,-0.78125 -0.85937,-0.78125 -0.85937,-1.98438 0,-0.71875 0.32812,-1.29687 0.32813,-0.59375 0.84375,-0.9375 0.53125,-0.35938 1.1875,-0.54688 0.46875,-0.125 1.45313,-0.25 1.98437,-0.23437 2.92187,-0.5625 0.0156,-0.34375 0.0156,-0.42187 0,-1 -0.46875,-1.42188 -0.625,-0.54687 -1.875,-0.54687 -1.15625,0 -1.70313,0.40625 -0.54687,0.40625 -0.8125,1.42187 l -1.60937,-0.21875 q 0.21875,-1.01562 0.71875,-1.64062 0.5,-0.64063 1.45312,-0.98438 0.95313,-0.34375 2.1875,-0.34375 1.25,0 2.01563,0.29688 0.78125,0.28125 1.14062,0.73437 0.375,0.4375 0.51563,1.10938 0.0781,0.42187 0.0781,1.51562 v 2.1875 q 0,2.28125 0.10938,2.89063 0.10937,0.59375 0.40625,1.15625 h -1.70313 q -0.26562,-0.51563 -0.32812,-1.1875 z m -0.14063,-3.67188 q -0.89062,0.375 -2.67187,0.625 -1.01563,0.14063 -1.4375,0.32813 -0.42188,0.1875 -0.65625,0.53125 -0.21875,0.34375 -0.21875,0.78125 0,0.65625 0.5,1.09375 0.5,0.4375 1.45312,0.4375 0.9375,0 1.67188,-0.40625 0.75,-0.42188 1.09375,-1.14063 0.26562,-0.5625 0.26562,-1.64062 z m 10.51636,1.3125 1.60937,0.21875 q -0.26562,1.65625 -1.35937,2.60938 -1.07813,0.9375 -2.67188,0.9375 -1.98437,0 -3.1875,-1.29688 -1.20312,-1.29687 -1.20312,-3.71875 0,-1.57812 0.51562,-2.75 0.51563,-1.17187 1.57813,-1.75 1.0625,-0.59375 2.3125,-0.59375 1.57812,0 2.57812,0.79688 1,0.79687 1.28125,2.26562 l -1.59375,0.23438 q -0.23437,-0.96875 -0.8125,-1.45313 -0.57812,-0.5 -1.39062,-0.5 -1.23438,0 -2.01563,0.89063 -0.78125,0.89062 -0.78125,2.8125 0,1.95312 0.75,2.84375 0.75,0.875 1.95313,0.875 0.96875,0 1.60937,-0.59375 0.65625,-0.59375 0.82813,-1.82813 z m 3.01562,3.54688 v -13.35938 h 1.64063 v 7.625 l 3.89062,-3.9375 h 2.10938 l -3.6875,3.59375 4.0625,6.07813 h -2.01563 l -3.20312,-4.95313 -1.15625,1.125 v 3.82813 z m 15.95313,-3.10938 1.6875,0.20313 q -0.40625,1.48437 -1.48438,2.3125 -1.07812,0.8125 -2.76562,0.8125 -2.125,0 -3.375,-1.29688 -1.23438,-1.3125 -1.23438,-3.67187 0,-2.45313 1.25,-3.79688 1.26563,-1.34375 3.26563,-1.34375 1.9375,0 3.15625,1.32813 1.23437,1.3125 1.23437,3.70312 0,0.15625 0,0.4375 h -7.21875 q 0.0937,1.59375 0.90625,2.45313 0.8125,0.84375 2.01563,0.84375 0.90625,0 1.54687,-0.46875 0.64063,-0.48438 1.01563,-1.51563 z m -5.39063,-2.65625 h 5.40625 q -0.10937,-1.21875 -0.625,-1.82812 -0.78125,-0.95313 -2.03125,-0.95313 -1.125,0 -1.90625,0.76563 -0.76562,0.75 -0.84375,2.01562 z m 12.71949,4.29688 0.23437,1.45312 q -0.6875,0.14063 -1.23437,0.14063 -0.89063,0 -1.39063,-0.28125 -0.48437,-0.28125 -0.6875,-0.73438 -0.20312,-0.46875 -0.20312,-1.9375 v -5.57812 h -1.20313 v -1.26563 h 1.20313 v -2.39062 l 1.625,-0.98438 v 3.375 h 1.65625 v 1.26563 h -1.65625 v 5.67187 q 0,0.6875 0.0781,0.89063 0.0937,0.20312 0.28125,0.32812 0.20313,0.10938 0.57813,0.10938 0.26562,0 0.71875,-0.0625 z"
       fill-rule="nonzero"
       id="path1950" />
    <path
       fill="#cfe2f3"
       d="M 473.4147,213.99738 H 678.45404 V 323.13123 H 473.4147 Z"
       fill-rule="evenodd"
       id="path1952" />
    <path
       stroke="#000000"
       stroke-width="1"
       stroke-linejoin="round"
       stroke-linecap="butt"
       d="M 473.4147,213.99738 H 678.45404 V 323.13123 H 473.4147 Z"
       fill-rule="evenodd"
       id="path1954" />
    <path
       fill="#000000"
       d="m 502.3957,250.7393 q 0.71875,0 1.40625,0.375 0.6875,0.35937 1.0625,1.0625 0.39062,0.6875 0.39062,1.42187 0,1.1875 -0.84375,2.03125 -0.82812,0.84374 -2.01562,0.84374 -1.1875,0 -2.03125,-0.84374 -0.84375,-0.84375 -0.84375,-2.03125 0,-0.75 0.375,-1.4375 0.39062,-0.6875 1.07812,-1.04687 0.70313,-0.375 1.42188,-0.375 z"
       fill-rule="nonzero"
       id="path1956" />
    <path
       fill="#000000"
       d="m 533.8678,257.3643 v -8.42186 h -3.14063 v -1.125 h 7.5625 v 1.125 h -3.15625 v 8.42186 z m 5.08411,-8.18749 v -1.35937 h 1.17187 v 1.35937 z m 0,8.18749 v -6.90623 h 1.17187 v 6.90623 z m 2.94543,0 v -6.90623 h 1.04688 v 0.96875 q 0.32812,-0.51563 0.85937,-0.8125 0.54688,-0.3125 1.23438,-0.3125 0.78125,0 1.26562,0.3125 0.48438,0.3125 0.6875,0.89062 0.82813,-1.20312 2.14063,-1.20312 1.03125,0 1.57812,0.57812 0.5625,0.5625 0.5625,1.73438 v 4.74998 h -1.17187 v -4.35936 q 0,-0.70312 -0.125,-1 -0.10938,-0.3125 -0.40625,-0.5 -0.29688,-0.1875 -0.70313,-0.1875 -0.71875,0 -1.20312,0.48438 -0.48438,0.48437 -0.48438,1.54687 v 4.01561 h -1.17187 v -4.48436 q 0,-0.78125 -0.29688,-1.17187 -0.28125,-0.39063 -0.92187,-0.39063 -0.5,0 -0.92188,0.26563 -0.42187,0.25 -0.60937,0.75 -0.1875,0.5 -0.1875,1.45312 v 3.57811 z m 15.83679,-2.21873 1.20313,0.14062 q -0.28125,1.06249 -1.0625,1.65624 -0.76563,0.57812 -1.96875,0.57812 -1.51563,0 -2.40625,-0.9375 -0.89063,-0.93748 -0.89063,-2.60936 0,-1.75 0.89063,-2.70312 0.90625,-0.96875 2.34375,-0.96875 1.39062,0 2.26562,0.9375 0.875,0.9375 0.875,2.65625 0,0.10937 0,0.3125 h -5.15625 q 0.0625,1.14062 0.64063,1.75 0.57812,0.59373 1.4375,0.59373 0.65625,0 1.10937,-0.32812 0.45313,-0.34374 0.71875,-1.07811 z m -3.84375,-1.90625 h 3.85938 q -0.0781,-0.85938 -0.4375,-1.29688 -0.5625,-0.6875 -1.45313,-0.6875 -0.8125,0 -1.35937,0.54688 -0.54688,0.53125 -0.60938,1.4375 z m 6.0531,2.0625 1.15625,-0.1875 q 0.10938,0.70312 0.54688,1.07811 0.45312,0.35937 1.25,0.35937 0.8125,0 1.20312,-0.32812 0.39063,-0.32811 0.39063,-0.76561 0,-0.39063 -0.35938,-0.625 -0.23437,-0.15625 -1.1875,-0.39063 -1.29687,-0.32812 -1.79687,-0.5625 -0.48438,-0.25 -0.75,-0.65625 -0.25,-0.42187 -0.25,-0.9375 0,-0.45312 0.20312,-0.84375 0.21875,-0.40625 0.57813,-0.67187 0.28125,-0.1875 0.75,-0.32813 0.46875,-0.14062 1.01562,-0.14062 0.8125,0 1.42188,0.23437 0.60937,0.23438 0.90625,0.64063 0.29687,0.39062 0.40625,1.0625 l -1.14063,0.15625 q -0.0781,-0.53125 -0.45312,-0.82813 -0.375,-0.3125 -1.0625,-0.3125 -0.8125,0 -1.15625,0.26563 -0.34375,0.26562 -0.34375,0.625 0,0.23437 0.14062,0.42187 0.15625,0.1875 0.45313,0.3125 0.17187,0.0625 1.03125,0.29688 1.25,0.32812 1.73437,0.54687 0.5,0.20313 0.78125,0.60938 0.28125,0.40625 0.28125,1 0,0.59375 -0.34375,1.10935 -0.34375,0.51563 -1,0.79688 -0.64062,0.28125 -1.45312,0.28125 -1.34375,0 -2.04688,-0.5625 -0.70312,-0.5625 -0.90625,-1.65623 z m 9.69532,1.01561 0.17187,1.03125 q -0.5,0.10937 -0.89062,0.10937 -0.64063,0 -1,-0.20312 -0.34375,-0.20313 -0.48438,-0.53125 -0.14062,-0.32813 -0.14062,-1.39061 v -3.96875 h -0.85938 v -0.90625 h 0.85938 v -1.71875 l 1.17187,-0.70313 v 2.42188 h 1.17188 v 0.90625 h -1.17188 v 4.04687 q 0,0.5 0.0469,0.64061 0.0625,0.14063 0.20312,0.23438 0.14063,0.0781 0.40625,0.0781 0.20313,0 0.51563,-0.0469 z m 5.65612,0.1875 q -0.65625,0.5625 -1.26562,0.79687 -0.59375,0.21875 -1.28125,0.21875 -1.14063,0 -1.75,-0.54687 -0.60938,-0.5625 -0.60938,-1.43749 0,-0.5 0.21875,-0.92187 0.23438,-0.42188 0.60938,-0.67188 0.375,-0.25 0.84375,-0.39062 0.34375,-0.0781 1.04687,-0.17188 1.42188,-0.17187 2.09375,-0.40625 0,-0.23437 0,-0.29687 0,-0.71875 -0.32812,-1.01563 -0.45313,-0.39062 -1.34375,-0.39062 -0.8125,0 -1.21875,0.29687 -0.39063,0.28125 -0.57813,1.01563 l -1.14062,-0.15625 q 0.15625,-0.73438 0.51562,-1.1875 0.35938,-0.45313 1.03125,-0.6875 0.67188,-0.25 1.5625,-0.25 0.89063,0 1.4375,0.20312 0.5625,0.20313 0.8125,0.53125 0.26563,0.3125 0.375,0.79688 0.0469,0.29687 0.0469,1.07812 v 1.5625 q 0,1.62499 0.0781,2.06249 0.0781,0.4375 0.29688,0.82812 h -1.21875 q -0.1875,-0.35937 -0.23438,-0.85937 z m -0.0937,-2.60936 q -0.64062,0.26562 -1.92187,0.4375 -0.71875,0.10937 -1.01563,0.25 -0.29687,0.125 -0.46875,0.375 -0.15625,0.25 -0.15625,0.54687 0,0.46875 0.34375,0.78124 0.35938,0.3125 1.04688,0.3125 0.67187,0 1.20312,-0.29688 0.53125,-0.29687 0.78125,-0.81248 0.1875,-0.39063 0.1875,-1.17188 z m 2.9906,3.46873 v -6.90623 h 1.04688 v 0.96875 q 0.32812,-0.51563 0.85937,-0.8125 0.54688,-0.3125 1.23438,-0.3125 0.78125,0 1.26562,0.3125 0.48438,0.3125 0.6875,0.89062 0.82813,-1.20312 2.14063,-1.20312 1.03125,0 1.57812,0.57812 0.5625,0.5625 0.5625,1.73438 v 4.74998 h -1.17187 v -4.35936 q 0,-0.70312 -0.125,-1 -0.10938,-0.3125 -0.40625,-0.5 -0.29688,-0.1875 -0.70313,-0.1875 -0.71875,0 -1.20312,0.48438 -0.48438,0.48437 -0.48438,1.54687 v 4.01561 h -1.17187 v -4.48436 q 0,-0.78125 -0.29688,-1.17187 -0.28125,-0.39063 -0.92187,-0.39063 -0.5,0 -0.92188,0.26563 -0.42187,0.25 -0.60937,0.75 -0.1875,0.5 -0.1875,1.45312 v 3.57811 z m 11.10242,2.65625 v -9.56249 h 1.07813 v 0.89063 q 0.375,-0.53125 0.84375,-0.78125 0.48437,-0.26563 1.15625,-0.26563 0.875,0 1.54687,0.45313 0.6875,0.45312 1.03125,1.28125 0.34375,0.82812 0.34375,1.82812 0,1.04688 -0.375,1.90625 -0.375,0.84374 -1.10937,1.29686 -0.71875,0.45313 -1.53125,0.45313 -0.57813,0 -1.04688,-0.25 -0.46875,-0.25 -0.76562,-0.625 v 3.375 z m 1.0625,-6.07811 q 0,1.34375 0.53125,1.98438 0.54688,0.62498 1.3125,0.62498 0.78125,0 1.34375,-0.65623 0.5625,-0.65625 0.5625,-2.04688 0,-1.3125 -0.54687,-1.96875 -0.54688,-0.67187 -1.29688,-0.67187 -0.75,0 -1.32812,0.70312 -0.57813,0.70313 -0.57813,2.03125 z"
       fill-rule="nonzero"
       id="path1958" />
    <path
       fill="#000000"
       d="m 502.3957,266.7393 q 0.71875,0 1.40625,0.375 0.6875,0.35938 1.0625,1.0625 0.39062,0.6875 0.39062,1.42188 0,1.1875 -0.84375,2.03125 -0.82812,0.84375 -2.01562,0.84375 -1.1875,0 -2.03125,-0.84375 -0.84375,-0.84375 -0.84375,-2.03125 0,-0.75 0.375,-1.4375 0.39062,-0.6875 1.07812,-1.04688 0.70313,-0.375 1.42188,-0.375 z"
       fill-rule="nonzero"
       id="path1960" />
    <path
       fill="#000000"
       d="m 538.2428,270.02054 1.26562,0.3125 q -0.39062,1.5625 -1.42187,2.375 -1.03125,0.8125 -2.53125,0.8125 -1.53125,0 -2.5,-0.625 -0.96875,-0.625 -1.48438,-1.8125 -0.5,-1.1875 -0.5,-2.5625 0,-1.48438 0.5625,-2.59375 0.57813,-1.10938 1.625,-1.6875 1.0625,-0.57813 2.32813,-0.57813 1.42187,0 2.39062,0.73438 0.98438,0.71875 1.375,2.04687 l -1.25,0.29688 q -0.32812,-1.04688 -0.96875,-1.51563 -0.625,-0.48437 -1.57812,-0.48437 -1.09375,0 -1.84375,0.53125 -0.73438,0.53125 -1.03125,1.42187 -0.29688,0.875 -0.29688,1.82813 0,1.21875 0.34375,2.125 0.35938,0.90625 1.10938,1.35937 0.75,0.4375 1.625,0.4375 1.0625,0 1.79687,-0.60937 0.73438,-0.60938 0.98438,-1.8125 z m 2.67206,3.34375 v -9.54688 h 1.17187 v 3.42188 q 0.82813,-0.9375 2.07813,-0.9375 0.76562,0 1.32812,0.29687 0.5625,0.29688 0.8125,0.84375 0.25,0.53125 0.25,1.54688 v 4.375 h -1.17187 v -4.375 q 0,-0.89063 -0.39063,-1.28125 -0.375,-0.40625 -1.07812,-0.40625 -0.51563,0 -0.98438,0.28125 -0.45312,0.26562 -0.65625,0.73437 -0.1875,0.45313 -0.1875,1.26563 v 3.78125 z m 11.9281,-0.85938 q -0.65625,0.5625 -1.26563,0.79688 -0.59375,0.21875 -1.28125,0.21875 -1.14062,0 -1.75,-0.54688 -0.60937,-0.5625 -0.60937,-1.4375 0,-0.5 0.21875,-0.92187 0.23437,-0.42188 0.60937,-0.67188 0.375,-0.25 0.84375,-0.39062 0.34375,-0.0781 1.04688,-0.17188 1.42187,-0.17187 2.09375,-0.40625 0,-0.23437 0,-0.29687 0,-0.71875 -0.32813,-1.01563 -0.45312,-0.39062 -1.34375,-0.39062 -0.8125,0 -1.21875,0.29687 -0.39062,0.28125 -0.57812,1.01563 l -1.14063,-0.15625 q 0.15625,-0.73438 0.51563,-1.1875 0.35937,-0.45313 1.03125,-0.6875 0.67187,-0.25 1.5625,-0.25 0.89062,0 1.4375,0.20312 0.5625,0.20313 0.8125,0.53125 0.26562,0.3125 0.375,0.79688 0.0469,0.29687 0.0469,1.07812 v 1.5625 q 0,1.625 0.0781,2.0625 0.0781,0.4375 0.29687,0.82813 h -1.21875 q -0.1875,-0.35938 -0.23437,-0.85938 z m -0.0937,-2.60937 q -0.64063,0.26562 -1.92188,0.4375 -0.71875,0.10937 -1.01562,0.25 -0.29688,0.125 -0.46875,0.375 -0.15625,0.25 -0.15625,0.54687 0,0.46875 0.34375,0.78125 0.35937,0.3125 1.04687,0.3125 0.67188,0 1.20313,-0.29687 0.53125,-0.29688 0.78125,-0.8125 0.1875,-0.39063 0.1875,-1.17188 z m 2.97497,3.46875 v -6.90625 h 1.0625 v 1.04687 q 0.40625,-0.73437 0.73438,-0.96875 0.34375,-0.23437 0.76562,-0.23437 0.59375,0 1.20313,0.375 l -0.40625,1.07812 q -0.4375,-0.25 -0.85938,-0.25 -0.39062,0 -0.70312,0.23438 -0.29688,0.23437 -0.42188,0.64062 -0.20312,0.625 -0.20312,1.35938 v 3.625 z m 8.96961,-0.85938 q -0.65625,0.5625 -1.26563,0.79688 -0.59375,0.21875 -1.28125,0.21875 -1.14062,0 -1.75,-0.54688 -0.60937,-0.5625 -0.60937,-1.4375 0,-0.5 0.21875,-0.92187 0.23437,-0.42188 0.60937,-0.67188 0.375,-0.25 0.84375,-0.39062 0.34375,-0.0781 1.04688,-0.17188 1.42187,-0.17187 2.09375,-0.40625 0,-0.23437 0,-0.29687 0,-0.71875 -0.32813,-1.01563 -0.45312,-0.39062 -1.34375,-0.39062 -0.8125,0 -1.21875,0.29687 -0.39062,0.28125 -0.57812,1.01563 l -1.14063,-0.15625 q 0.15625,-0.73438 0.51563,-1.1875 0.35937,-0.45313 1.03125,-0.6875 0.67187,-0.25 1.5625,-0.25 0.89062,0 1.4375,0.20312 0.5625,0.20313 0.8125,0.53125 0.26562,0.3125 0.375,0.79688 0.0469,0.29687 0.0469,1.07812 v 1.5625 q 0,1.625 0.0781,2.0625 0.0781,0.4375 0.29687,0.82813 h -1.21875 q -0.1875,-0.35938 -0.23437,-0.85938 z m -0.0937,-2.60937 q -0.64063,0.26562 -1.92188,0.4375 -0.71875,0.10937 -1.01562,0.25 -0.29688,0.125 -0.46875,0.375 -0.15625,0.25 -0.15625,0.54687 0,0.46875 0.34375,0.78125 0.35937,0.3125 1.04687,0.3125 0.67188,0 1.20313,-0.29687 0.53125,-0.29688 0.78125,-0.8125 0.1875,-0.39063 0.1875,-1.17188 z m 7.50622,0.9375 1.15625,0.15625 q -0.1875,1.1875 -0.96875,1.85937 -0.78125,0.67188 -1.92187,0.67188 -1.40625,0 -2.28125,-0.92188 -0.85938,-0.9375 -0.85938,-2.65625 0,-1.125 0.375,-1.96875 0.375,-0.84375 1.125,-1.25 0.76563,-0.42187 1.65625,-0.42187 1.125,0 1.84375,0.57812 0.71875,0.5625 0.92188,1.60938 l -1.14063,0.17187 q -0.17187,-0.70312 -0.59375,-1.04687 -0.40625,-0.35938 -0.98437,-0.35938 -0.89063,0 -1.45313,0.64063 -0.54687,0.64062 -0.54687,2 0,1.40625 0.53125,2.03125 0.54687,0.625 1.40625,0.625 0.6875,0 1.14062,-0.42188 0.46875,-0.42187 0.59375,-1.29687 z m 4.71094,1.48437 0.17188,1.03125 q -0.5,0.10938 -0.89063,0.10938 -0.64062,0 -1,-0.20313 -0.34375,-0.20312 -0.48437,-0.53125 -0.14063,-0.32812 -0.14063,-1.39062 v -3.96875 h -0.85937 v -0.90625 h 0.85937 v -1.71875 l 1.17188,-0.70313 v 2.42188 h 1.17187 v 0.90625 h -1.17187 v 4.04687 q 0,0.5 0.0469,0.64063 0.0625,0.14062 0.20313,0.23437 0.14062,0.0781 0.40625,0.0781 0.20312,0 0.51562,-0.0469 z m 5.87488,-1.17187 1.20313,0.14062 q -0.28125,1.0625 -1.0625,1.65625 -0.76563,0.57813 -1.96875,0.57813 -1.51563,0 -2.40625,-0.9375 -0.89063,-0.9375 -0.89063,-2.60938 0,-1.75 0.89063,-2.70312 0.90625,-0.96875 2.34375,-0.96875 1.39062,0 2.26562,0.9375 0.875,0.9375 0.875,2.65625 0,0.10937 0,0.3125 h -5.15625 q 0.0625,1.14062 0.64063,1.75 0.57812,0.59375 1.4375,0.59375 0.65625,0 1.10937,-0.32813 0.45313,-0.34375 0.71875,-1.07812 z m -3.84375,-1.90625 h 3.85938 q -0.0781,-0.85938 -0.4375,-1.29688 -0.5625,-0.6875 -1.45313,-0.6875 -0.8125,0 -1.35937,0.54688 -0.54688,0.53125 -0.60938,1.4375 z m 6.50623,4.125 v -6.90625 h 1.0625 v 1.04687 q 0.40625,-0.73437 0.73437,-0.96875 0.34375,-0.23437 0.76563,-0.23437 0.59375,0 1.20312,0.375 l -0.40625,1.07812 q -0.4375,-0.25 -0.85937,-0.25 -0.39063,0 -0.70313,0.23438 -0.29687,0.23437 -0.42187,0.64062 -0.20313,0.625 -0.20313,1.35938 v 3.625 z m 8.31323,0 v -9.54688 h 3.59375 q 0.95312,0 1.45312,0.0937 0.70313,0.125 1.17188,0.45313 0.48437,0.32812 0.76562,0.92187 0.29688,0.59375 0.29688,1.29688 0,1.21875 -0.78125,2.0625 -0.76563,0.84375 -2.79688,0.84375 h -2.4375 v 3.875 z m 1.26562,-5 h 2.45313 q 1.23437,0 1.75,-0.45313 0.51562,-0.46875 0.51562,-1.28125 0,-0.60937 -0.3125,-1.03125 -0.29687,-0.42187 -0.79687,-0.5625 -0.3125,-0.0937 -1.17188,-0.0937 h -2.4375 z m 7.0304,1.54687 q 0,-1.92187 1.07812,-2.84375 0.89063,-0.76562 2.17188,-0.76562 1.42187,0 2.32812,0.9375 0.90625,0.92187 0.90625,2.57812 0,1.32813 -0.40625,2.09375 -0.39062,0.76563 -1.15625,1.1875 -0.76562,0.42188 -1.67187,0.42188 -1.45313,0 -2.35938,-0.92188 -0.89062,-0.9375 -0.89062,-2.6875 z m 1.20312,0 q 0,1.32813 0.57813,1.98438 0.59375,0.65625 1.46875,0.65625 0.875,0 1.45312,-0.65625 0.57813,-0.67188 0.57813,-2.03125 0,-1.28125 -0.59375,-1.9375 -0.57813,-0.65625 -1.4375,-0.65625 -0.875,0 -1.46875,0.65625 -0.57813,0.65625 -0.57813,1.98437 z m 6.1781,1.39063 1.15625,-0.1875 q 0.10938,0.70312 0.54688,1.07812 0.45312,0.35938 1.25,0.35938 0.8125,0 1.20312,-0.32813 0.39063,-0.32812 0.39063,-0.76562 0,-0.39063 -0.35938,-0.625 -0.23437,-0.15625 -1.1875,-0.39063 -1.29687,-0.32812 -1.79687,-0.5625 -0.48438,-0.25 -0.75,-0.65625 -0.25,-0.42187 -0.25,-0.9375 0,-0.45312 0.20312,-0.84375 0.21875,-0.40625 0.57813,-0.67187 0.28125,-0.1875 0.75,-0.32813 0.46875,-0.14062 1.01562,-0.14062 0.8125,0 1.42188,0.23437 0.60937,0.23438 0.90625,0.64063 0.29687,0.39062 0.40625,1.0625 l -1.14063,0.15625 q -0.0781,-0.53125 -0.45312,-0.82813 -0.375,-0.3125 -1.0625,-0.3125 -0.8125,0 -1.15625,0.26563 -0.34375,0.26562 -0.34375,0.625 0,0.23437 0.14062,0.42187 0.15625,0.1875 0.45313,0.3125 0.17187,0.0625 1.03125,0.29688 1.25,0.32812 1.73437,0.54687 0.5,0.20313 0.78125,0.60938 0.28125,0.40625 0.28125,1 0,0.59375 -0.34375,1.10937 -0.34375,0.51563 -1,0.79688 -0.64062,0.28125 -1.45312,0.28125 -1.34375,0 -2.04688,-0.5625 -0.70312,-0.5625 -0.90625,-1.65625 z m 7.14844,-6.125 v -1.35938 h 1.17188 v 1.35938 z m 0,8.1875 v -6.90625 h 1.17188 v 6.90625 z m 5.50794,-1.04688 0.17187,1.03125 q -0.5,0.10938 -0.89062,0.10938 -0.64063,0 -1,-0.20313 -0.34375,-0.20312 -0.48438,-0.53125 -0.14062,-0.32812 -0.14062,-1.39062 v -3.96875 h -0.85938 v -0.90625 h 0.85938 v -1.71875 l 1.17187,-0.70313 v 2.42188 h 1.17188 v 0.90625 h -1.17188 v 4.04687 q 0,0.5 0.0469,0.64063 0.0625,0.14062 0.20312,0.23437 0.14063,0.0781 0.40625,0.0781 0.20313,0 0.51563,-0.0469 z m 1.15612,-7.14062 v -1.35938 h 1.17188 v 1.35938 z m 0,8.1875 v -6.90625 h 1.17188 v 6.90625 z m 2.50794,-3.45313 q 0,-1.92187 1.07812,-2.84375 0.89063,-0.76562 2.17188,-0.76562 1.42187,0 2.32812,0.9375 0.90625,0.92187 0.90625,2.57812 0,1.32813 -0.40625,2.09375 -0.39062,0.76563 -1.15625,1.1875 -0.76562,0.42188 -1.67187,0.42188 -1.45313,0 -2.35938,-0.92188 -0.89062,-0.9375 -0.89062,-2.6875 z m 1.20312,0 q 0,1.32813 0.57813,1.98438 0.59375,0.65625 1.46875,0.65625 0.875,0 1.45312,-0.65625 0.57813,-0.67188 0.57813,-2.03125 0,-1.28125 -0.59375,-1.9375 -0.57813,-0.65625 -1.4375,-0.65625 -0.875,0 -1.46875,0.65625 -0.57813,0.65625 -0.57813,1.98437 z m 6.64685,3.45313 v -6.90625 h 1.0625 v 0.98437 q 0.75,-1.14062 2.1875,-1.14062 0.625,0 1.15625,0.21875 0.53125,0.21875 0.78125,0.59375 0.26563,0.35937 0.375,0.85937 0.0625,0.32813 0.0625,1.14063 v 4.25 h -1.17187 v -4.20313 q 0,-0.71875 -0.14063,-1.0625 -0.14062,-0.35937 -0.48437,-0.5625 -0.34375,-0.21875 -0.8125,-0.21875 -0.75,0 -1.29688,0.46875 -0.54687,0.46875 -0.54687,1.79688 v 3.78125 z"
       fill-rule="nonzero"
       id="path1962" />
    <path
       fill="#000000"
       d="m 502.3957,282.7393 q 0.71875,0 1.40625,0.375 0.6875,0.35938 1.0625,1.0625 0.39062,0.6875 0.39062,1.42188 0,1.1875 -0.84375,2.03125 -0.82812,0.84375 -2.01562,0.84375 -1.1875,0 -2.03125,-0.84375 -0.84375,-0.84375 -0.84375,-2.03125 0,-0.75 0.375,-1.4375 0.39062,-0.6875 1.07812,-1.04688 0.70313,-0.375 1.42188,-0.375 z"
       fill-rule="nonzero"
       id="path1964" />
    <path
       fill="#000000"
       d="m 538.2428,286.02054 1.26562,0.3125 q -0.39062,1.5625 -1.42187,2.375 -1.03125,0.8125 -2.53125,0.8125 -1.53125,0 -2.5,-0.625 -0.96875,-0.625 -1.48438,-1.8125 -0.5,-1.1875 -0.5,-2.5625 0,-1.48438 0.5625,-2.59375 0.57813,-1.10938 1.625,-1.6875 1.0625,-0.57813 2.32813,-0.57813 1.42187,0 2.39062,0.73438 0.98438,0.71875 1.375,2.04687 l -1.25,0.29688 q -0.32812,-1.04688 -0.96875,-1.51563 -0.625,-0.48437 -1.57812,-0.48437 -1.09375,0 -1.84375,0.53125 -0.73438,0.53125 -1.03125,1.42187 -0.29688,0.875 -0.29688,1.82813 0,1.21875 0.34375,2.125 0.35938,0.90625 1.10938,1.35937 0.75,0.4375 1.625,0.4375 1.0625,0 1.79687,-0.60937 0.73438,-0.60938 0.98438,-1.8125 z m 2.67206,3.34375 v -9.54688 h 1.17187 v 3.42188 q 0.82813,-0.9375 2.07813,-0.9375 0.76562,0 1.32812,0.29687 0.5625,0.29688 0.8125,0.84375 0.25,0.53125 0.25,1.54688 v 4.375 h -1.17187 v -4.375 q 0,-0.89063 -0.39063,-1.28125 -0.375,-0.40625 -1.07812,-0.40625 -0.51563,0 -0.98438,0.28125 -0.45312,0.26562 -0.65625,0.73437 -0.1875,0.45313 -0.1875,1.26563 v 3.78125 z m 11.9281,-0.85938 q -0.65625,0.5625 -1.26563,0.79688 -0.59375,0.21875 -1.28125,0.21875 -1.14062,0 -1.75,-0.54688 -0.60937,-0.5625 -0.60937,-1.4375 0,-0.5 0.21875,-0.92187 0.23437,-0.42188 0.60937,-0.67188 0.375,-0.25 0.84375,-0.39062 0.34375,-0.0781 1.04688,-0.17188 1.42187,-0.17187 2.09375,-0.40625 0,-0.23437 0,-0.29687 0,-0.71875 -0.32813,-1.01563 -0.45312,-0.39062 -1.34375,-0.39062 -0.8125,0 -1.21875,0.29687 -0.39062,0.28125 -0.57812,1.01563 l -1.14063,-0.15625 q 0.15625,-0.73438 0.51563,-1.1875 0.35937,-0.45313 1.03125,-0.6875 0.67187,-0.25 1.5625,-0.25 0.89062,0 1.4375,0.20312 0.5625,0.20313 0.8125,0.53125 0.26562,0.3125 0.375,0.79688 0.0469,0.29687 0.0469,1.07812 v 1.5625 q 0,1.625 0.0781,2.0625 0.0781,0.4375 0.29687,0.82813 h -1.21875 q -0.1875,-0.35938 -0.23437,-0.85938 z m -0.0937,-2.60937 q -0.64063,0.26562 -1.92188,0.4375 -0.71875,0.10937 -1.01562,0.25 -0.29688,0.125 -0.46875,0.375 -0.15625,0.25 -0.15625,0.54687 0,0.46875 0.34375,0.78125 0.35937,0.3125 1.04687,0.3125 0.67188,0 1.20313,-0.29687 0.53125,-0.29688 0.78125,-0.8125 0.1875,-0.39063 0.1875,-1.17188 z m 2.97497,3.46875 v -6.90625 h 1.0625 v 1.04687 q 0.40625,-0.73437 0.73438,-0.96875 0.34375,-0.23437 0.76562,-0.23437 0.59375,0 1.20313,0.375 l -0.40625,1.07812 q -0.4375,-0.25 -0.85938,-0.25 -0.39062,0 -0.70312,0.23438 -0.29688,0.23437 -0.42188,0.64062 -0.20312,0.625 -0.20312,1.35938 v 3.625 z m 8.96961,-0.85938 q -0.65625,0.5625 -1.26563,0.79688 -0.59375,0.21875 -1.28125,0.21875 -1.14062,0 -1.75,-0.54688 -0.60937,-0.5625 -0.60937,-1.4375 0,-0.5 0.21875,-0.92187 0.23437,-0.42188 0.60937,-0.67188 0.375,-0.25 0.84375,-0.39062 0.34375,-0.0781 1.04688,-0.17188 1.42187,-0.17187 2.09375,-0.40625 0,-0.23437 0,-0.29687 0,-0.71875 -0.32813,-1.01563 -0.45312,-0.39062 -1.34375,-0.39062 -0.8125,0 -1.21875,0.29687 -0.39062,0.28125 -0.57812,1.01563 l -1.14063,-0.15625 q 0.15625,-0.73438 0.51563,-1.1875 0.35937,-0.45313 1.03125,-0.6875 0.67187,-0.25 1.5625,-0.25 0.89062,0 1.4375,0.20312 0.5625,0.20313 0.8125,0.53125 0.26562,0.3125 0.375,0.79688 0.0469,0.29687 0.0469,1.07812 v 1.5625 q 0,1.625 0.0781,2.0625 0.0781,0.4375 0.29687,0.82813 h -1.21875 q -0.1875,-0.35938 -0.23437,-0.85938 z m -0.0937,-2.60937 q -0.64063,0.26562 -1.92188,0.4375 -0.71875,0.10937 -1.01562,0.25 -0.29688,0.125 -0.46875,0.375 -0.15625,0.25 -0.15625,0.54687 0,0.46875 0.34375,0.78125 0.35937,0.3125 1.04687,0.3125 0.67188,0 1.20313,-0.29687 0.53125,-0.29688 0.78125,-0.8125 0.1875,-0.39063 0.1875,-1.17188 z m 7.50622,0.9375 1.15625,0.15625 q -0.1875,1.1875 -0.96875,1.85937 -0.78125,0.67188 -1.92187,0.67188 -1.40625,0 -2.28125,-0.92188 -0.85938,-0.9375 -0.85938,-2.65625 0,-1.125 0.375,-1.96875 0.375,-0.84375 1.125,-1.25 0.76563,-0.42187 1.65625,-0.42187 1.125,0 1.84375,0.57812 0.71875,0.5625 0.92188,1.60938 l -1.14063,0.17187 q -0.17187,-0.70312 -0.59375,-1.04687 -0.40625,-0.35938 -0.98437,-0.35938 -0.89063,0 -1.45313,0.64063 -0.54687,0.64062 -0.54687,2 0,1.40625 0.53125,2.03125 0.54687,0.625 1.40625,0.625 0.6875,0 1.14062,-0.42188 0.46875,-0.42187 0.59375,-1.29687 z m 4.71094,1.48437 0.17188,1.03125 q -0.5,0.10938 -0.89063,0.10938 -0.64062,0 -1,-0.20313 -0.34375,-0.20312 -0.48437,-0.53125 -0.14063,-0.32812 -0.14063,-1.39062 v -3.96875 h -0.85937 v -0.90625 h 0.85937 v -1.71875 l 1.17188,-0.70313 v 2.42188 h 1.17187 v 0.90625 h -1.17187 v 4.04687 q 0,0.5 0.0469,0.64063 0.0625,0.14062 0.20313,0.23437 0.14062,0.0781 0.40625,0.0781 0.20312,0 0.51562,-0.0469 z m 5.87488,-1.17187 1.20313,0.14062 q -0.28125,1.0625 -1.0625,1.65625 -0.76563,0.57813 -1.96875,0.57813 -1.51563,0 -2.40625,-0.9375 -0.89063,-0.9375 -0.89063,-2.60938 0,-1.75 0.89063,-2.70312 0.90625,-0.96875 2.34375,-0.96875 1.39062,0 2.26562,0.9375 0.875,0.9375 0.875,2.65625 0,0.10937 0,0.3125 h -5.15625 q 0.0625,1.14062 0.64063,1.75 0.57812,0.59375 1.4375,0.59375 0.65625,0 1.10937,-0.32813 0.45313,-0.34375 0.71875,-1.07812 z m -3.84375,-1.90625 h 3.85938 q -0.0781,-0.85938 -0.4375,-1.29688 -0.5625,-0.6875 -1.45313,-0.6875 -0.8125,0 -1.35937,0.54688 -0.54688,0.53125 -0.60938,1.4375 z m 6.50623,4.125 v -6.90625 h 1.0625 v 1.04687 q 0.40625,-0.73437 0.73437,-0.96875 0.34375,-0.23437 0.76563,-0.23437 0.59375,0 1.20312,0.375 l -0.40625,1.07812 q -0.4375,-0.25 -0.85937,-0.25 -0.39063,0 -0.70313,0.23438 -0.29687,0.23437 -0.42187,0.64062 -0.20313,0.625 -0.20313,1.35938 v 3.625 z m 8.37573,0 v -9.54688 h 6.4375 v 1.125 h -5.17188 v 2.96875 h 4.46875 v 1.125 h -4.46875 v 4.32813 z m 12.43823,-0.85938 q -0.65625,0.5625 -1.26563,0.79688 -0.59375,0.21875 -1.28125,0.21875 -1.14062,0 -1.75,-0.54688 -0.60937,-0.5625 -0.60937,-1.4375 0,-0.5 0.21875,-0.92187 0.23437,-0.42188 0.60937,-0.67188 0.375,-0.25 0.84375,-0.39062 0.34375,-0.0781 1.04688,-0.17188 1.42187,-0.17187 2.09375,-0.40625 0,-0.23437 0,-0.29687 0,-0.71875 -0.32813,-1.01563 -0.45312,-0.39062 -1.34375,-0.39062 -0.8125,0 -1.21875,0.29687 -0.39062,0.28125 -0.57812,1.01563 l -1.14063,-0.15625 q 0.15625,-0.73438 0.51563,-1.1875 0.35937,-0.45313 1.03125,-0.6875 0.67187,-0.25 1.5625,-0.25 0.89062,0 1.4375,0.20312 0.5625,0.20313 0.8125,0.53125 0.26562,0.3125 0.375,0.79688 0.0469,0.29687 0.0469,1.07812 v 1.5625 q 0,1.625 0.0781,2.0625 0.0781,0.4375 0.29687,0.82813 h -1.21875 q -0.1875,-0.35938 -0.23437,-0.85938 z m -0.0937,-2.60937 q -0.64063,0.26562 -1.92188,0.4375 -0.71875,0.10937 -1.01562,0.25 -0.29688,0.125 -0.46875,0.375 -0.15625,0.25 -0.15625,0.54687 0,0.46875 0.34375,0.78125 0.35937,0.3125 1.04687,0.3125 0.67188,0 1.20313,-0.29687 0.53125,-0.29688 0.78125,-0.8125 0.1875,-0.39063 0.1875,-1.17188 z m 7.50623,0.9375 1.15625,0.15625 q -0.1875,1.1875 -0.96875,1.85937 -0.78125,0.67188 -1.92188,0.67188 -1.40625,0 -2.28125,-0.92188 -0.85937,-0.9375 -0.85937,-2.65625 0,-1.125 0.375,-1.96875 0.375,-0.84375 1.125,-1.25 0.76562,-0.42187 1.65625,-0.42187 1.125,0 1.84375,0.57812 0.71875,0.5625 0.92187,1.60938 l -1.14062,0.17187 q -0.17188,-0.70312 -0.59375,-1.04687 -0.40625,-0.35938 -0.98438,-0.35938 -0.89062,0 -1.45312,0.64063 -0.54688,0.64062 -0.54688,2 0,1.40625 0.53125,2.03125 0.54688,0.625 1.40625,0.625 0.6875,0 1.14063,-0.42188 0.46875,-0.42187 0.59375,-1.29687 z m 2.16406,-5.65625 v -1.35938 h 1.17187 v 1.35938 z m 0,8.1875 v -6.90625 h 1.17187 v 6.90625 z m 2.94543,0 v -6.90625 h 1.0625 v 0.98437 q 0.75,-1.14062 2.1875,-1.14062 0.625,0 1.15625,0.21875 0.53125,0.21875 0.78125,0.59375 0.26563,0.35937 0.375,0.85937 0.0625,0.32813 0.0625,1.14063 v 4.25 h -1.17187 v -4.20313 q 0,-0.71875 -0.14063,-1.0625 -0.14062,-0.35937 -0.48437,-0.5625 -0.34375,-0.21875 -0.8125,-0.21875 -0.75,0 -1.29688,0.46875 -0.54687,0.46875 -0.54687,1.79688 v 3.78125 z m 7.19373,0.57812 1.14062,0.15625 q 0.0781,0.53125 0.40625,0.78125 0.4375,0.3125 1.1875,0.3125 0.8125,0 1.25,-0.32812 0.45313,-0.3125 0.60938,-0.90625 0.0937,-0.35938 0.0781,-1.5 -0.76562,0.90625 -1.90625,0.90625 -1.4375,0 -2.21875,-1.03125 -0.78125,-1.03125 -0.78125,-2.46875 0,-0.98438 0.35938,-1.8125 0.35937,-0.84375 1.03125,-1.29688 0.6875,-0.45312 1.60937,-0.45312 1.21875,0 2.01563,0.98437 v -0.82812 h 1.07812 v 5.96875 q 0,1.60937 -0.32812,2.28125 -0.32813,0.6875 -1.04688,1.07812 -0.70312,0.39063 -1.75,0.39063 -1.23437,0 -2,-0.5625 -0.75,-0.5625 -0.73437,-1.67188 z m 0.98437,-4.15625 q 0,1.35938 0.53125,1.98438 0.54688,0.625 1.35938,0.625 0.79687,0 1.34375,-0.625 0.54687,-0.625 0.54687,-1.95313 0,-1.26562 -0.5625,-1.90625 -0.5625,-0.64062 -1.35937,-0.64062 -0.76563,0 -1.3125,0.64062 -0.54688,0.625 -0.54688,1.875 z"
       fill-rule="nonzero"
       id="path1966" />
    <path
       fill="#cfe2f3"
       d="M 862.76117,169.11285 H 1106.5721 V 341.49081 H 862.76117 Z"
       fill-rule="evenodd"
       id="path1968" />
    <path
       stroke="#000000"
       stroke-width="1"
       stroke-linejoin="round"
       stroke-linecap="butt"
       d="M 862.76117,169.11285 H 1106.5721 V 341.49081 H 862.76117 Z"
       fill-rule="evenodd"
       id="path1970" />
    <path
       fill="#000000"
       d="m 957.5869,196.03285 v -13.35938 h 5.04688 q 1.32812,0 2.03125,0.125 0.96875,0.17188 1.64062,0.64063 0.67188,0.45312 1.07813,1.28125 0.40625,0.82812 0.40625,1.82812 0,1.70313 -1.09375,2.89063 -1.07813,1.17187 -3.92188,1.17187 h -3.42187 v 5.42188 z m 1.76563,-7 h 3.45312 q 1.71875,0 2.4375,-0.64063 0.71875,-0.64062 0.71875,-1.79687 0,-0.84375 -0.42187,-1.4375 -0.42188,-0.59375 -1.125,-0.78125 -0.4375,-0.125 -1.64063,-0.125 h -3.42187 z m 16.78729,5.8125 q -0.92188,0.76562 -1.76563,1.09375 -0.82812,0.3125 -1.79687,0.3125 -1.59375,0 -2.45313,-0.78125 -0.85937,-0.78125 -0.85937,-1.98438 0,-0.71875 0.32812,-1.29687 0.32813,-0.59375 0.84375,-0.9375 0.53125,-0.35938 1.1875,-0.54688 0.46875,-0.125 1.45313,-0.25 1.98437,-0.23437 2.92187,-0.5625 0.0156,-0.34375 0.0156,-0.42187 0,-1 -0.46875,-1.42188 -0.625,-0.54687 -1.875,-0.54687 -1.15625,0 -1.70313,0.40625 -0.54687,0.40625 -0.8125,1.42187 l -1.60937,-0.21875 q 0.21875,-1.01562 0.71875,-1.64062 0.5,-0.64063 1.45312,-0.98438 0.95313,-0.34375 2.1875,-0.34375 1.25,0 2.01563,0.29688 0.78125,0.28125 1.14062,0.73437 0.375,0.4375 0.51563,1.10938 0.0781,0.42187 0.0781,1.51562 v 2.1875 q 0,2.28125 0.10938,2.89063 0.10937,0.59375 0.40625,1.15625 h -1.70313 q -0.26562,-0.51563 -0.32812,-1.1875 z m -0.14063,-3.67188 q -0.89062,0.375 -2.67187,0.625 -1.01563,0.14063 -1.4375,0.32813 -0.42188,0.1875 -0.65625,0.53125 -0.21875,0.34375 -0.21875,0.78125 0,0.65625 0.5,1.09375 0.5,0.4375 1.45312,0.4375 0.9375,0 1.67188,-0.40625 0.75,-0.42188 1.09375,-1.14063 0.26562,-0.5625 0.26562,-1.64062 z m 10.51636,1.3125 1.60937,0.21875 q -0.26562,1.65625 -1.35937,2.60938 -1.07813,0.9375 -2.67188,0.9375 -1.98437,0 -3.1875,-1.29688 -1.20312,-1.29687 -1.20312,-3.71875 0,-1.57812 0.51562,-2.75 0.51563,-1.17187 1.57813,-1.75 1.0625,-0.59375 2.3125,-0.59375 1.57812,0 2.57812,0.79688 1,0.79687 1.28125,2.26562 l -1.59375,0.23438 q -0.23437,-0.96875 -0.8125,-1.45313 -0.57812,-0.5 -1.39062,-0.5 -1.23438,0 -2.01563,0.89063 -0.78125,0.89062 -0.78125,2.8125 0,1.95312 0.75,2.84375 0.75,0.875 1.95313,0.875 0.96875,0 1.60937,-0.59375 0.65625,-0.59375 0.82813,-1.82813 z m 3.01562,3.54688 v -13.35938 h 1.64063 v 7.625 l 3.89062,-3.9375 h 2.10938 l -3.6875,3.59375 4.0625,6.07813 h -2.01563 l -3.20312,-4.95313 -1.15625,1.125 v 3.82813 z m 15.95313,-3.10938 1.6875,0.20313 q -0.4063,1.48437 -1.4844,2.3125 -1.0781,0.8125 -2.7656,0.8125 -2.125,0 -3.375,-1.29688 -1.23438,-1.3125 -1.23438,-3.67187 0,-2.45313 1.25,-3.79688 1.26558,-1.34375 3.26558,-1.34375 1.9375,0 3.1563,1.32813 1.2344,1.3125 1.2344,3.70312 0,0.15625 0,0.4375 h -7.21878 q 0.0938,1.59375 0.90628,2.45313 0.8125,0.84375 2.0156,0.84375 0.9062,0 1.5469,-0.46875 0.6406,-0.48438 1.0156,-1.51563 z m -5.3906,-2.65625 h 5.4062 q -0.1094,-1.21875 -0.625,-1.82812 -0.7812,-0.95313 -2.0312,-0.95313 -1.125,0 -1.9063,0.76563 -0.7656,0.75 -0.8437,2.01562 z m 12.7195,4.29688 0.2343,1.45312 q -0.6875,0.14063 -1.2343,0.14063 -0.8907,0 -1.3907,-0.28125 -0.4843,-0.28125 -0.6875,-0.73438 -0.2031,-0.46875 -0.2031,-1.9375 v -5.57812 h -1.2031 v -1.26563 h 1.2031 v -2.39062 l 1.625,-0.98438 v 3.375 h 1.6563 v 1.26563 h -1.6563 v 5.67187 q 0,0.6875 0.078,0.89063 0.094,0.20312 0.2813,0.32812 0.2031,0.10938 0.5781,0.10938 0.2656,0 0.7188,-0.0625 z"
       fill-rule="nonzero"
       id="path1972" />
    <path
       fill="#cfe2f3"
       d="m 882.147,213.99738 h 205.0394 V 323.13123 H 882.147 Z"
       fill-rule="evenodd"
       id="path1974" />
    <path
       stroke="#000000"
       stroke-width="1"
       stroke-linejoin="round"
       stroke-linecap="butt"
       d="m 882.147,213.99738 h 205.0394 V 323.13123 H 882.147 Z"
       fill-rule="evenodd"
       id="path1976" />
    <path
       fill="#000000"
       d="m 911.128,250.7393 q 0.71875,0 1.40625,0.375 0.6875,0.35937 1.0625,1.0625 0.39063,0.6875 0.39063,1.42187 0,1.1875 -0.84375,2.03125 -0.82813,0.84374 -2.01563,0.84374 -1.1875,0 -2.03125,-0.84374 -0.84375,-0.84375 -0.84375,-2.03125 0,-0.75 0.375,-1.4375 0.39063,-0.6875 1.07813,-1.04687 0.70312,-0.375 1.42187,-0.375 z"
       fill-rule="nonzero"
       id="path1978" />
    <path
       fill="#000000"
       d="m 942.6001,257.3643 v -8.42186 h -3.14063 v -1.125 h 7.5625 v 1.125 h -3.15625 v 8.42186 z m 5.08405,-8.18749 v -1.35937 h 1.17187 v 1.35937 z m 0,8.18749 v -6.90623 h 1.17187 v 6.90623 z m 2.94549,0 v -6.90623 h 1.04688 v 0.96875 q 0.32812,-0.51563 0.85937,-0.8125 0.54688,-0.3125 1.23438,-0.3125 0.78125,0 1.26562,0.3125 0.48438,0.3125 0.6875,0.89062 0.82813,-1.20312 2.14063,-1.20312 1.03125,0 1.57812,0.57812 0.5625,0.5625 0.5625,1.73438 v 4.74998 h -1.17187 v -4.35936 q 0,-0.70312 -0.125,-1 -0.10938,-0.3125 -0.40625,-0.5 -0.29688,-0.1875 -0.70313,-0.1875 -0.71875,0 -1.20312,0.48438 -0.48438,0.48437 -0.48438,1.54687 v 4.01561 h -1.17187 v -4.48436 q 0,-0.78125 -0.29688,-1.17187 -0.28125,-0.39063 -0.92187,-0.39063 -0.5,0 -0.92188,0.26563 -0.42187,0.25 -0.60937,0.75 -0.1875,0.5 -0.1875,1.45312 v 3.57811 z m 15.83679,-2.21873 1.20313,0.14062 q -0.28125,1.06249 -1.0625,1.65624 -0.76563,0.57812 -1.96875,0.57812 -1.51563,0 -2.40625,-0.9375 -0.89063,-0.93748 -0.89063,-2.60936 0,-1.75 0.89063,-2.70312 0.90625,-0.96875 2.34375,-0.96875 1.39062,0 2.26562,0.9375 0.875,0.9375 0.875,2.65625 0,0.10937 0,0.3125 h -5.15625 q 0.0625,1.14062 0.64063,1.75 0.57812,0.59373 1.4375,0.59373 0.65625,0 1.10937,-0.32812 0.45313,-0.34374 0.71875,-1.07811 z m -3.84375,-1.90625 h 3.85938 q -0.0781,-0.85938 -0.4375,-1.29688 -0.5625,-0.6875 -1.45313,-0.6875 -0.8125,0 -1.35937,0.54688 -0.54688,0.53125 -0.60938,1.4375 z m 6.0531,2.0625 1.15625,-0.1875 q 0.10938,0.70312 0.54688,1.07811 0.45312,0.35937 1.25,0.35937 0.8125,0 1.20312,-0.32812 0.39063,-0.32811 0.39063,-0.76561 0,-0.39063 -0.35938,-0.625 -0.23437,-0.15625 -1.1875,-0.39063 -1.29687,-0.32812 -1.79687,-0.5625 -0.48438,-0.25 -0.75,-0.65625 -0.25,-0.42187 -0.25,-0.9375 0,-0.45312 0.20312,-0.84375 0.21875,-0.40625 0.57813,-0.67187 0.28125,-0.1875 0.75,-0.32813 0.46875,-0.14062 1.01562,-0.14062 0.8125,0 1.42188,0.23437 0.60937,0.23438 0.90625,0.64063 0.29687,0.39062 0.40625,1.0625 l -1.14063,0.15625 q -0.0781,-0.53125 -0.45312,-0.82813 -0.375,-0.3125 -1.0625,-0.3125 -0.8125,0 -1.15625,0.26563 -0.34375,0.26562 -0.34375,0.625 0,0.23437 0.14062,0.42187 0.15625,0.1875 0.45313,0.3125 0.17187,0.0625 1.03125,0.29688 1.25,0.32812 1.73437,0.54687 0.5,0.20313 0.78125,0.60938 0.28125,0.40625 0.28125,1 0,0.59375 -0.34375,1.10935 -0.34375,0.51563 -1,0.79688 -0.64062,0.28125 -1.45312,0.28125 -1.34375,0 -2.04688,-0.5625 -0.70312,-0.5625 -0.90625,-1.65623 z m 9.69532,1.01561 0.17187,1.03125 q -0.5,0.10937 -0.89062,0.10937 -0.64063,0 -1,-0.20312 -0.34375,-0.20313 -0.48438,-0.53125 -0.14062,-0.32813 -0.14062,-1.39061 v -3.96875 h -0.85938 v -0.90625 h 0.85938 v -1.71875 l 1.17187,-0.70313 v 2.42188 h 1.17188 v 0.90625 h -1.17188 v 4.04687 q 0,0.5 0.0469,0.64061 0.0625,0.14063 0.20312,0.23438 0.14063,0.0781 0.40625,0.0781 0.20313,0 0.51563,-0.0469 z m 5.65612,0.1875 q -0.65625,0.5625 -1.26562,0.79687 -0.59375,0.21875 -1.28125,0.21875 -1.14063,0 -1.75,-0.54687 -0.60938,-0.5625 -0.60938,-1.43749 0,-0.5 0.21875,-0.92187 0.23438,-0.42188 0.60938,-0.67188 0.375,-0.25 0.84375,-0.39062 0.34375,-0.0781 1.04687,-0.17188 1.42188,-0.17187 2.09375,-0.40625 0,-0.23437 0,-0.29687 0,-0.71875 -0.32812,-1.01563 -0.45313,-0.39062 -1.34375,-0.39062 -0.8125,0 -1.21875,0.29687 -0.39063,0.28125 -0.57813,1.01563 l -1.14062,-0.15625 q 0.15625,-0.73438 0.51562,-1.1875 0.35938,-0.45313 1.03125,-0.6875 0.67188,-0.25 1.5625,-0.25 0.89063,0 1.4375,0.20312 0.5625,0.20313 0.8125,0.53125 0.26563,0.3125 0.375,0.79688 0.0469,0.29687 0.0469,1.07812 v 1.5625 q 0,1.62499 0.0781,2.06249 0.0781,0.4375 0.29688,0.82812 h -1.21875 q -0.1875,-0.35937 -0.23438,-0.85937 z m -0.0937,-2.60936 q -0.64062,0.26562 -1.92187,0.4375 -0.71875,0.10937 -1.01563,0.25 -0.29687,0.125 -0.46875,0.375 -0.15625,0.25 -0.15625,0.54687 0,0.46875 0.34375,0.78124 0.35938,0.3125 1.04688,0.3125 0.67187,0 1.20312,-0.29688 0.53125,-0.29687 0.78125,-0.81248 0.1875,-0.39063 0.1875,-1.17188 z m 2.9906,3.46873 v -6.90623 h 1.04688 v 0.96875 q 0.32812,-0.51563 0.85937,-0.8125 0.54688,-0.3125 1.23438,-0.3125 0.78125,0 1.26562,0.3125 0.48438,0.3125 0.6875,0.89062 0.82813,-1.20312 2.14063,-1.20312 1.03125,0 1.57812,0.57812 0.5625,0.5625 0.5625,1.73438 v 4.74998 h -1.17187 v -4.35936 q 0,-0.70312 -0.125,-1 -0.10938,-0.3125 -0.40625,-0.5 -0.29688,-0.1875 -0.70313,-0.1875 -0.71875,0 -1.20312,0.48438 -0.48438,0.48437 -0.48438,1.54687 v 4.01561 h -1.17187 v -4.48436 q 0,-0.78125 -0.29688,-1.17187 -0.28125,-0.39063 -0.92187,-0.39063 -0.5,0 -0.92188,0.26563 -0.42187,0.25 -0.60937,0.75 -0.1875,0.5 -0.1875,1.45312 v 3.57811 z m 11.10242,2.65625 v -9.56249 h 1.07813 v 0.89063 q 0.375,-0.53125 0.84375,-0.78125 0.48428,-0.26563 1.15618,-0.26563 0.875,0 1.547,0.45313 0.6875,0.45312 1.0312,1.28125 0.3438,0.82812 0.3438,1.82812 0,1.04688 -0.375,1.90625 -0.375,0.84374 -1.1095,1.29686 -0.7187,0.45313 -1.5312,0.45313 -0.5782,0 -1.04686,-0.25 -0.46875,-0.25 -0.76562,-0.625 v 3.375 z m 1.0625,-6.07811 q 0,1.34375 0.53125,1.98438 0.54681,0.62498 1.31241,0.62498 0.7813,0 1.3438,-0.65623 0.5625,-0.65625 0.5625,-2.04688 0,-1.3125 -0.5469,-1.96875 -0.5469,-0.67187 -1.2969,-0.67187 -0.75,0 -1.32803,0.70312 -0.57813,0.70313 -0.57813,2.03125 z"
       fill-rule="nonzero"
       id="path1980" />
    <path
       fill="#000000"
       d="m 911.128,266.7393 q 0.71875,0 1.40625,0.375 0.6875,0.35938 1.0625,1.0625 0.39063,0.6875 0.39063,1.42188 0,1.1875 -0.84375,2.03125 -0.82813,0.84375 -2.01563,0.84375 -1.1875,0 -2.03125,-0.84375 -0.84375,-0.84375 -0.84375,-2.03125 0,-0.75 0.375,-1.4375 0.39063,-0.6875 1.07813,-1.04688 0.70312,-0.375 1.42187,-0.375 z"
       fill-rule="nonzero"
       id="path1982" />
    <path
       fill="#000000"
       d="m 942.6001,273.3643 v -8.42187 h -3.14063 v -1.125 h 7.5625 v 1.125 h -3.15625 v 8.42187 z m 8.60101,-0.85937 q -0.65625,0.5625 -1.26562,0.79687 -0.59375,0.21875 -1.28125,0.21875 -1.14063,0 -1.75,-0.54687 -0.60938,-0.5625 -0.60938,-1.4375 0,-0.5 0.21875,-0.92188 0.23438,-0.42187 0.60938,-0.67187 0.375,-0.25 0.84375,-0.39063 0.34375,-0.0781 1.04687,-0.17187 1.42188,-0.17188 2.09375,-0.40625 0,-0.23438 0,-0.29688 0,-0.71875 -0.32812,-1.01562 -0.45313,-0.39063 -1.34375,-0.39063 -0.8125,0 -1.21875,0.29688 -0.39063,0.28125 -0.57813,1.01562 l -1.14062,-0.15625 q 0.15625,-0.73437 0.51562,-1.1875 0.35938,-0.45312 1.03125,-0.6875 0.67188,-0.25 1.5625,-0.25 0.89063,0 1.4375,0.20313 0.5625,0.20312 0.8125,0.53125 0.26563,0.3125 0.375,0.79687 0.0469,0.29688 0.0469,1.07813 v 1.5625 q 0,1.625 0.0781,2.0625 0.0781,0.4375 0.29688,0.82812 h -1.21875 q -0.1875,-0.35937 -0.23438,-0.85937 z m -0.0937,-2.60938 q -0.64062,0.26563 -1.92187,0.4375 -0.71875,0.10938 -1.01563,0.25 -0.29687,0.125 -0.46875,0.375 -0.15625,0.25 -0.15625,0.54688 0,0.46875 0.34375,0.78125 0.35938,0.3125 1.04688,0.3125 0.67187,0 1.20312,-0.29688 0.53125,-0.29687 0.78125,-0.8125 0.1875,-0.39062 0.1875,-1.17187 z m 2.97498,3.46875 v -6.90625 h 1.0625 v 1.04688 q 0.40625,-0.73438 0.73437,-0.96875 0.34375,-0.23438 0.76563,-0.23438 0.59375,0 1.20312,0.375 l -0.40625,1.07813 q -0.4375,-0.25 -0.85937,-0.25 -0.39063,0 -0.70313,0.23437 -0.29687,0.23438 -0.42187,0.64063 -0.20313,0.625 -0.20313,1.35937 v 3.625 z m 4.23523,0.57813 1.14062,0.15625 q 0.0781,0.53125 0.40625,0.78125 0.4375,0.3125 1.1875,0.3125 0.8125,0 1.25,-0.32813 0.45313,-0.3125 0.60938,-0.90625 0.0937,-0.35937 0.0781,-1.5 -0.76562,0.90625 -1.90625,0.90625 -1.4375,0 -2.21875,-1.03125 -0.78125,-1.03125 -0.78125,-2.46875 0,-0.98437 0.35938,-1.8125 0.35937,-0.84375 1.03125,-1.29687 0.6875,-0.45313 1.60937,-0.45313 1.21875,0 2.01563,0.98438 v -0.82813 h 1.07812 v 5.96875 q 0,1.60938 -0.32812,2.28125 -0.32813,0.6875 -1.04688,1.07813 -0.70312,0.39062 -1.75,0.39062 -1.23437,0 -2,-0.5625 -0.75,-0.5625 -0.73437,-1.67187 z m 0.98437,-4.15625 q 0,1.35937 0.53125,1.98437 0.54688,0.625 1.35938,0.625 0.79687,0 1.34375,-0.625 0.54687,-0.625 0.54687,-1.95312 0,-1.26563 -0.5625,-1.90625 -0.5625,-0.64063 -1.35937,-0.64063 -0.76563,0 -1.3125,0.64063 -0.54688,0.625 -0.54688,1.875 z m 11.38123,1.35937 1.20312,0.14063 q -0.28125,1.0625 -1.0625,1.65625 -0.76562,0.57812 -1.96875,0.57812 -1.51562,0 -2.40625,-0.9375 -0.89062,-0.9375 -0.89062,-2.60937 0,-1.75 0.89062,-2.70313 0.90625,-0.96875 2.34375,-0.96875 1.39063,0 2.26563,0.9375 0.875,0.9375 0.875,2.65625 0,0.10938 0,0.3125 h -5.15625 q 0.0625,1.14063 0.64062,1.75 0.57813,0.59375 1.4375,0.59375 0.65625,0 1.10938,-0.32812 0.45312,-0.34375 0.71875,-1.07813 z m -3.84375,-1.90625 h 3.85937 q -0.0781,-0.85937 -0.4375,-1.29687 -0.5625,-0.6875 -1.45312,-0.6875 -0.8125,0 -1.35938,0.54687 -0.54687,0.53125 -0.60937,1.4375 z m 9.08435,3.07813 0.17188,1.03125 q -0.5,0.10937 -0.89063,0.10937 -0.64062,0 -1,-0.20312 -0.34375,-0.20313 -0.48437,-0.53125 -0.14063,-0.32813 -0.14063,-1.39063 v -3.96875 h -0.85937 v -0.90625 h 0.85937 v -1.71875 l 1.17188,-0.70312 v 2.42187 h 1.17187 v 0.90625 h -1.17187 v 4.04688 q 0,0.5 0.0469,0.64062 0.0625,0.14063 0.20313,0.23438 0.14062,0.0781 0.40625,0.0781 0.20312,0 0.51562,-0.0469 z m 5.03101,1.04687 v -9.54687 h 1.26562 v 3.92187 h 4.95313 v -3.92187 h 1.26562 v 9.54687 h -1.26562 v -4.5 h -4.95313 v 4.5 z m 9.45324,-8.1875 v -1.35937 h 1.17188 v 1.35937 z m 0,8.1875 v -6.90625 h 1.17188 v 6.90625 z m 5.508,-1.04687 0.17187,1.03125 q -0.5,0.10937 -0.89062,0.10937 -0.64063,0 -1,-0.20312 -0.34375,-0.20313 -0.48438,-0.53125 -0.14062,-0.32813 -0.14062,-1.39063 v -3.96875 h -0.85938 v -0.90625 h 0.85938 v -1.71875 l 1.17187,-0.70312 v 2.42187 h 1.17188 v 0.90625 h -1.17188 v 4.04688 q 0,0.5 0.0469,0.64062 0.0625,0.14063 0.20312,0.23438 0.14063,0.0781 0.40625,0.0781 0.20313,0 0.51563,-0.0469 z m 3.34357,-1.29688 q -0.0156,-0.23437 -0.0156,-0.35937 0,-0.6875 0.20313,-1.1875 0.14062,-0.375 0.45312,-0.76563 0.23441,-0.28125 0.84381,-0.8125 0.6093,-0.53125 0.7812,-0.84375 0.1875,-0.32812 0.1875,-0.70312 0,-0.6875 -0.5312,-1.20313 -0.5313,-0.51562 -1.29693,-0.51562 -0.75,0 -1.25,0.46875 -0.5,0.46875 -0.65625,1.45312 l -1.21875,-0.14062 q 0.17187,-1.32813 0.96875,-2.03125 0.8125,-0.71875 2.125,-0.71875 1.40628,0 2.23438,0.76562 0.8281,0.75 0.8281,1.84375 0,0.625 -0.2968,1.15625 -0.2813,0.51563 -1.1407,1.26563 -0.5625,0.51562 -0.75,0.76562 -0.1718,0.23438 -0.2656,0.54688 -0.078,0.3125 -0.078,1.01562 z m -0.0781,2.34375 v -1.32812 h 1.32816 v 1.32812 z"
       fill-rule="nonzero"
       id="path1984" />
    <path
       fill="#000000"
       d="m 911.128,282.7393 q 0.71875,0 1.40625,0.375 0.6875,0.35938 1.0625,1.0625 0.39063,0.6875 0.39063,1.42188 0,1.1875 -0.84375,2.03125 -0.82813,0.84375 -2.01563,0.84375 -1.1875,0 -2.03125,-0.84375 -0.84375,-0.84375 -0.84375,-2.03125 0,-0.75 0.375,-1.4375 0.39063,-0.6875 1.07813,-1.04688 0.70312,-0.375 1.42187,-0.375 z"
       fill-rule="nonzero"
       id="path1986" />
    <path
       fill="#000000"
       d="m 942.6001,289.3643 v -8.42187 h -3.14063 v -1.125 h 7.5625 v 1.125 h -3.15625 v 8.42187 z m 8.60101,-0.85937 q -0.65625,0.5625 -1.26562,0.79687 -0.59375,0.21875 -1.28125,0.21875 -1.14063,0 -1.75,-0.54687 -0.60938,-0.5625 -0.60938,-1.4375 0,-0.5 0.21875,-0.92188 0.23438,-0.42187 0.60938,-0.67187 0.375,-0.25 0.84375,-0.39063 0.34375,-0.0781 1.04687,-0.17187 1.42188,-0.17188 2.09375,-0.40625 0,-0.23438 0,-0.29688 0,-0.71875 -0.32812,-1.01562 -0.45313,-0.39063 -1.34375,-0.39063 -0.8125,0 -1.21875,0.29688 -0.39063,0.28125 -0.57813,1.01562 l -1.14062,-0.15625 q 0.15625,-0.73437 0.51562,-1.1875 0.35938,-0.45312 1.03125,-0.6875 0.67188,-0.25 1.5625,-0.25 0.89063,0 1.4375,0.20313 0.5625,0.20312 0.8125,0.53125 0.26563,0.3125 0.375,0.79687 0.0469,0.29688 0.0469,1.07813 v 1.5625 q 0,1.625 0.0781,2.0625 0.0781,0.4375 0.29688,0.82812 h -1.21875 q -0.1875,-0.35937 -0.23438,-0.85937 z m -0.0937,-2.60938 q -0.64062,0.26563 -1.92187,0.4375 -0.71875,0.10938 -1.01563,0.25 -0.29687,0.125 -0.46875,0.375 -0.15625,0.25 -0.15625,0.54688 0,0.46875 0.34375,0.78125 0.35938,0.3125 1.04688,0.3125 0.67187,0 1.20312,-0.29688 0.53125,-0.29687 0.78125,-0.8125 0.1875,-0.39062 0.1875,-1.17187 z m 2.97498,3.46875 v -6.90625 h 1.0625 v 1.04688 q 0.40625,-0.73438 0.73437,-0.96875 0.34375,-0.23438 0.76563,-0.23438 0.59375,0 1.20312,0.375 l -0.40625,1.07813 q -0.4375,-0.25 -0.85937,-0.25 -0.39063,0 -0.70313,0.23437 -0.29687,0.23438 -0.42187,0.64063 -0.20313,0.625 -0.20313,1.35937 v 3.625 z m 4.23523,0.57813 1.14062,0.15625 q 0.0781,0.53125 0.40625,0.78125 0.4375,0.3125 1.1875,0.3125 0.8125,0 1.25,-0.32813 0.45313,-0.3125 0.60938,-0.90625 0.0937,-0.35937 0.0781,-1.5 -0.76562,0.90625 -1.90625,0.90625 -1.4375,0 -2.21875,-1.03125 -0.78125,-1.03125 -0.78125,-2.46875 0,-0.98437 0.35938,-1.8125 0.35937,-0.84375 1.03125,-1.29687 0.6875,-0.45313 1.60937,-0.45313 1.21875,0 2.01563,0.98438 v -0.82813 h 1.07812 v 5.96875 q 0,1.60938 -0.32812,2.28125 -0.32813,0.6875 -1.04688,1.07813 -0.70312,0.39062 -1.75,0.39062 -1.23437,0 -2,-0.5625 -0.75,-0.5625 -0.73437,-1.67187 z m 0.98437,-4.15625 q 0,1.35937 0.53125,1.98437 0.54688,0.625 1.35938,0.625 0.79687,0 1.34375,-0.625 0.54687,-0.625 0.54687,-1.95312 0,-1.26563 -0.5625,-1.90625 -0.5625,-0.64063 -1.35937,-0.64063 -0.76563,0 -1.3125,0.64063 -0.54688,0.625 -0.54688,1.875 z m 11.38123,1.35937 1.20312,0.14063 q -0.28125,1.0625 -1.0625,1.65625 -0.76562,0.57812 -1.96875,0.57812 -1.51562,0 -2.40625,-0.9375 -0.89062,-0.9375 -0.89062,-2.60937 0,-1.75 0.89062,-2.70313 0.90625,-0.96875 2.34375,-0.96875 1.39063,0 2.26563,0.9375 0.875,0.9375 0.875,2.65625 0,0.10938 0,0.3125 h -5.15625 q 0.0625,1.14063 0.64062,1.75 0.57813,0.59375 1.4375,0.59375 0.65625,0 1.10938,-0.32812 0.45312,-0.34375 0.71875,-1.07813 z m -3.84375,-1.90625 h 3.85937 q -0.0781,-0.85937 -0.4375,-1.29687 -0.5625,-0.6875 -1.45312,-0.6875 -0.8125,0 -1.35938,0.54687 -0.54687,0.53125 -0.60937,1.4375 z m 9.08435,3.07813 0.17188,1.03125 q -0.5,0.10937 -0.89063,0.10937 -0.64062,0 -1,-0.20312 -0.34375,-0.20313 -0.48437,-0.53125 -0.14063,-0.32813 -0.14063,-1.39063 v -3.96875 h -0.85937 v -0.90625 h 0.85937 v -1.71875 l 1.17188,-0.70312 v 2.42187 h 1.17187 v 0.90625 h -1.17187 v 4.04688 q 0,0.5 0.0469,0.64062 0.0625,0.14063 0.20313,0.23438 0.14062,0.0781 0.40625,0.0781 0.20312,0 0.51562,-0.0469 z m 4.98413,1.04687 v -9.54687 h 1.29688 l 5.01562,7.5 v -7.5 h 1.20313 v 9.54687 h -1.29688 l -5.01562,-7.5 v 7.5 z m 14.00012,-0.85937 q -0.65625,0.5625 -1.26562,0.79687 -0.59375,0.21875 -1.28125,0.21875 -1.14063,0 -1.75,-0.54687 -0.60938,-0.5625 -0.60938,-1.4375 0,-0.5 0.21875,-0.92188 0.23438,-0.42187 0.60938,-0.67187 0.375,-0.25 0.84375,-0.39063 0.34375,-0.0781 1.04687,-0.17187 1.42188,-0.17188 2.09375,-0.40625 0,-0.23438 0,-0.29688 0,-0.71875 -0.32812,-1.01562 -0.45313,-0.39063 -1.34375,-0.39063 -0.8125,0 -1.21875,0.29688 -0.39063,0.28125 -0.57813,1.01562 l -1.14062,-0.15625 q 0.15625,-0.73437 0.51562,-1.1875 0.35938,-0.45312 1.03125,-0.6875 0.67188,-0.25 1.5625,-0.25 0.89063,0 1.4375,0.20313 0.5625,0.20312 0.8125,0.53125 0.26563,0.3125 0.375,0.79687 0.0469,0.29688 0.0469,1.07813 v 1.5625 q 0,1.625 0.0781,2.0625 0.0781,0.4375 0.29688,0.82812 h -1.21875 q -0.1875,-0.35937 -0.23438,-0.85937 z m -0.0937,-2.60938 q -0.64062,0.26563 -1.92187,0.4375 -0.71875,0.10938 -1.01563,0.25 -0.29687,0.125 -0.46875,0.375 -0.15625,0.25 -0.15625,0.54688 0,0.46875 0.34375,0.78125 0.35938,0.3125 1.04688,0.3125 0.67187,0 1.20312,-0.29688 0.53125,-0.29687 0.78125,-0.8125 0.1875,-0.39062 0.1875,-1.17187 z m 2.9906,3.46875 v -6.90625 h 1.04688 v 0.96875 q 0.32812,-0.51562 0.85937,-0.8125 0.54688,-0.3125 1.23438,-0.3125 0.7812,0 1.2656,0.3125 0.4844,0.3125 0.6875,0.89063 0.8281,-1.20313 2.1406,-1.20313 1.0313,0 1.5782,0.57813 0.5625,0.5625 0.5625,1.73437 v 4.75 h -1.1719 v -4.35937 q 0,-0.70313 -0.125,-1 -0.1094,-0.3125 -0.4063,-0.5 -0.2968,-0.1875 -0.7031,-0.1875 -0.7187,0 -1.2031,0.48437 -0.4844,0.48438 -0.4844,1.54688 v 4.01562 h -1.1719 v -4.48437 q 0,-0.78125 -0.2968,-1.17188 -0.2813,-0.39062 -0.9219,-0.39062 -0.5,0 -0.92188,0.26562 -0.42187,0.25 -0.60937,0.75 -0.1875,0.5 -0.1875,1.45313 v 3.57812 z m 15.83683,-2.21875 1.2031,0.14063 q -0.2813,1.0625 -1.0625,1.65625 -0.7656,0.57812 -1.9688,0.57812 -1.5156,0 -2.4062,-0.9375 -0.8906,-0.9375 -0.8906,-2.60937 0,-1.75 0.8906,-2.70313 0.9062,-0.96875 2.3437,-0.96875 1.3907,0 2.2657,0.9375 0.875,0.9375 0.875,2.65625 0,0.10938 0,0.3125 h -5.1563 q 0.062,1.14063 0.6406,1.75 0.5782,0.59375 1.4375,0.59375 0.6563,0 1.1094,-0.32812 0.4531,-0.34375 0.7188,-1.07813 z m -3.8438,-1.90625 h 3.8594 q -0.078,-0.85937 -0.4375,-1.29687 -0.5625,-0.6875 -1.4531,-0.6875 -0.8125,0 -1.3594,0.54687 -0.5469,0.53125 -0.6094,1.4375 z"
       fill-rule="nonzero"
       id="path1988" />
    <path
       fill="#000000"
       fill-opacity="0"
       d="M 508.61154,442.49606 H 643.2572 V 490.9685 H 508.61154 Z"
       fill-rule="evenodd"
       id="path1990" />
    <path
       fill="#000000"
       d="m 555.26447,474.53607 v -15.15625 h -5.65625 v -2.03125 h 13.625 v 2.03125 h -5.6875 v 15.15625 z m 9.11328,0 v -12.45313 h 1.89063 v 1.89063 q 0.73437,-1.32813 1.34375,-1.75 0.625,-0.42188 1.35937,-0.42188 1.0625,0 2.17188,0.6875 l -0.73438,1.95313 q -0.76562,-0.45313 -1.54687,-0.45313 -0.6875,0 -1.25,0.42188 -0.54688,0.40625 -0.78125,1.14062 -0.34375,1.125 -0.34375,2.46875 v 6.51563 z m 16.16406,0 v -1.82813 q -1.45312,2.10938 -3.9375,2.10938 -1.10937,0 -2.0625,-0.42188 -0.95312,-0.42187 -1.42187,-1.0625 -0.45313,-0.64062 -0.64063,-1.5625 -0.14062,-0.625 -0.14062,-1.96875 v -7.71875 h 2.10937 v 6.90625 q 0,1.65625 0.14063,2.23438 0.1875,0.82812 0.82812,1.3125 0.65625,0.46875 1.60938,0.46875 0.9375,0 1.76562,-0.48438 0.84375,-0.5 1.1875,-1.32812 0.34375,-0.84375 0.34375,-2.4375 v -6.67188 h 2.10938 v 12.45313 z m 4.34766,-3.71875 2.09375,-0.32813 q 0.17187,1.25 0.96875,1.92188 0.8125,0.67187 2.25,0.67187 1.45312,0 2.15625,-0.59375 0.70312,-0.59375 0.70312,-1.39062 0,-0.71875 -0.625,-1.125 -0.42187,-0.28125 -2.15625,-0.71875 -2.3125,-0.57813 -3.21875,-1 -0.89062,-0.4375 -1.35937,-1.1875 -0.45313,-0.76563 -0.45313,-1.67188 0,-0.82812 0.375,-1.53125 0.39063,-0.71875 1.04688,-1.1875 0.48437,-0.35937 1.32812,-0.60937 0.85938,-0.26563 1.82813,-0.26563 1.46875,0 2.57812,0.42188 1.10938,0.42187 1.625,1.15625 0.53125,0.71875 0.73438,1.92187 l -2.0625,0.28125 q -0.14063,-0.96875 -0.8125,-1.5 -0.67188,-0.54687 -1.90625,-0.54687 -1.45313,0 -2.07813,0.48437 -0.625,0.48438 -0.625,1.125 0,0.40625 0.26563,0.73438 0.25,0.34375 0.8125,0.5625 0.3125,0.125 1.85937,0.54687 2.23438,0.59375 3.10938,0.98438 0.89062,0.375 1.39062,1.10937 0.51563,0.71875 0.51563,1.79688 0,1.04687 -0.625,1.98437 -0.60938,0.9375 -1.76563,1.45313 -1.15625,0.5 -2.625,0.5 -2.42187,0 -3.70312,-1 -1.26563,-1.01563 -1.625,-3 z m 17.45312,1.82812 0.3125,1.85938 q -0.89062,0.20312 -1.59375,0.20312 -1.15625,0 -1.79687,-0.35937 -0.625,-0.375 -0.89063,-0.96875 -0.25,-0.59375 -0.25,-2.48438 v -7.17187 h -1.54687 v -1.64063 h 1.54687 v -3.07812 l 2.09375,-1.26563 v 4.34375 h 2.125 v 1.64063 h -2.125 v 7.28125 q 0,0.90625 0.10938,1.17187 0.125,0.25 0.375,0.40625 0.25,0.14063 0.71875,0.14063 0.34375,0 0.92187,-0.0781 z"
       fill-rule="nonzero"
       id="path1992" />
    <path
       fill="#000000"
       fill-opacity="0"
       d="M 508.61154,466.73227 H 6.5328"
       fill-rule="evenodd"
       id="path1994" />
    <path
       stroke="#c9daf8"
       stroke-width="4"
       stroke-linejoin="round"
       stroke-linecap="butt"
       d="M 508.61154,466.73227 H 30.5328"
       fill-rule="evenodd"
       id="path1996" />
    <path
       fill="#c9daf8"
       stroke="#c9daf8"
       stroke-width="4"
       stroke-linecap="butt"
       d="m 30.532808,460.12537 -18.15239,6.6069 18.15239,6.60694 z"
       fill-rule="evenodd"
       id="path1998" />
    <path
       fill="#000000"
       fill-opacity="0"
       d="M 1145.3359,466.73227 H 643.25716"
       fill-rule="evenodd"
       id="path2000" />
    <path
       stroke="#ea9999"
       stroke-width="4"
       stroke-linejoin="round"
       stroke-linecap="butt"
       d="M 1121.3359,466.73227 H 643.25716"
       fill-rule="evenodd"
       id="path2002" />
    <path
       fill="#ea9999"
       stroke="#ea9999"
       stroke-width="4"
       stroke-linecap="butt"
       d="m 1121.3359,473.3392 18.1525,-6.60693 -18.1525,-6.60691 z"
       fill-rule="evenodd"
       id="path2004" />
    <path
       fill="#000000"
       fill-opacity="0"
       d="m 227.99738,478.72702 h 59.1496 v 42.01578 h -59.1496 z"
       fill-rule="evenodd"
       id="path2006" />
    <path
       fill="#000000"
       d="m 239.2277,505.64703 v -13.35938 h 1.78125 v 11.78125 h 6.5625 v 1.57813 z m 16.87572,-3.10938 1.6875,0.20313 q -0.40625,1.48437 -1.48438,2.3125 -1.07812,0.8125 -2.76562,0.8125 -2.125,0 -3.375,-1.29688 -1.23438,-1.3125 -1.23438,-3.67187 0,-2.45313 1.25,-3.79688 1.26563,-1.34375 3.26563,-1.34375 1.9375,0 3.15625,1.32813 1.23437,1.3125 1.23437,3.70312 0,0.15625 0,0.4375 h -7.21875 q 0.0937,1.59375 0.90625,2.45313 0.8125,0.84375 2.01563,0.84375 0.90625,0 1.54687,-0.46875 0.64063,-0.48438 1.01563,-1.51563 z m -5.39063,-2.65625 h 5.40625 q -0.10937,-1.21875 -0.625,-1.82812 -0.78125,-0.95313 -2.03125,-0.95313 -1.125,0 -1.90625,0.76563 -0.76562,0.75 -0.84375,2.01562 z m 8.48511,2.875 1.625,-0.25 q 0.125,0.96875 0.75,1.5 0.625,0.51563 1.75,0.51563 1.125,0 1.67187,-0.45313 0.54688,-0.46875 0.54688,-1.09375 0,-0.54687 -0.48438,-0.875 -0.32812,-0.21875 -1.67187,-0.54687 -1.8125,-0.46875 -2.51563,-0.79688 -0.6875,-0.32812 -1.04687,-0.90625 -0.35938,-0.59375 -0.35938,-1.3125 0,-0.64062 0.29688,-1.1875 0.29687,-0.5625 0.8125,-0.92187 0.375,-0.28125 1.03125,-0.46875 0.67187,-0.20313 1.42187,-0.20313 1.14063,0 2,0.32813 0.85938,0.32812 1.26563,0.89062 0.42187,0.5625 0.57812,1.5 l -1.60937,0.21875 q -0.10938,-0.75 -0.64063,-1.17187 -0.51562,-0.42188 -1.46875,-0.42188 -1.14062,0 -1.625,0.375 -0.46875,0.375 -0.46875,0.875 0,0.3125 0.1875,0.57813 0.20313,0.26562 0.64063,0.4375 0.23437,0.0937 1.4375,0.42187 1.75,0.45313 2.4375,0.75 0.6875,0.29688 1.07812,0.85938 0.39063,0.5625 0.39063,1.40625 0,0.82812 -0.48438,1.54687 -0.46875,0.71875 -1.375,1.125 -0.90625,0.39063 -2.04687,0.39063 -1.875,0 -2.875,-0.78125 -0.98438,-0.78125 -1.25,-2.32813 z m 9.32812,0 1.625,-0.25 q 0.125,0.96875 0.75,1.5 0.625,0.51563 1.75,0.51563 1.125,0 1.67188,-0.45313 0.54687,-0.46875 0.54687,-1.09375 0,-0.54687 -0.48437,-0.875 -0.32813,-0.21875 -1.67188,-0.54687 -1.8125,-0.46875 -2.51562,-0.79688 -0.6875,-0.32812 -1.04688,-0.90625 -0.35937,-0.59375 -0.35937,-1.3125 0,-0.64062 0.29687,-1.1875 0.29688,-0.5625 0.8125,-0.92187 0.375,-0.28125 1.03125,-0.46875 0.67188,-0.20313 1.42188,-0.20313 1.14062,0 2,0.32813 0.85937,0.32812 1.26562,0.89062 0.42188,0.5625 0.57813,1.5 l -1.60938,0.21875 q -0.10937,-0.75 -0.64062,-1.17187 -0.51563,-0.42188 -1.46875,-0.42188 -1.14063,0 -1.625,0.375 -0.46875,0.375 -0.46875,0.875 0,0.3125 0.1875,0.57813 0.20312,0.26562 0.64062,0.4375 0.23438,0.0937 1.4375,0.42187 1.75,0.45313 2.4375,0.75 0.6875,0.29688 1.07813,0.85938 0.39062,0.5625 0.39062,1.40625 0,0.82812 -0.48437,1.54687 -0.46875,0.71875 -1.375,1.125 -0.90625,0.39063 -2.04688,0.39063 -1.875,0 -2.875,-0.78125 -0.98437,-0.78125 -1.25,-2.32813 z"
       fill-rule="nonzero"
       id="path2008" />
    <path
       fill="#000000"
       fill-opacity="0"
       d="M 853.95013,478.72702 H 969.50921 V 520.7428 H 853.95013 Z"
       fill-rule="evenodd"
       id="path2010" />
    <path
       fill="#000000"
       d="m 891.8678,505.64703 v -13.35938 h 2.65625 l 3.15625,9.45313 q 0.4375,1.32812 0.64062,1.98437 0.23438,-0.73437 0.70313,-2.14062 l 3.20312,-9.29688 h 2.375 v 13.35938 h -1.70312 v -11.17188 l -3.875,11.17188 h -1.59375 l -3.85938,-11.375 v 11.375 z m 14.77521,-4.84375 q 0,-2.6875 1.48437,-3.96875 1.25,-1.07813 3.04688,-1.07813 2,0 3.26562,1.3125 1.26563,1.29688 1.26563,3.60938 0,1.85937 -0.5625,2.9375 -0.5625,1.0625 -1.64063,1.65625 -1.0625,0.59375 -2.32812,0.59375 -2.03125,0 -3.28125,-1.29688 -1.25,-1.3125 -1.25,-3.76562 z m 1.6875,0 q 0,1.85937 0.79687,2.79687 0.8125,0.92188 2.04688,0.92188 1.21875,0 2.03125,-0.92188 0.8125,-0.9375 0.8125,-2.84375 0,-1.79687 -0.8125,-2.71875 -0.8125,-0.92187 -2.03125,-0.92187 -1.23438,0 -2.04688,0.92187 -0.79687,0.90625 -0.79687,2.76563 z m 9.28198,4.84375 v -9.67188 h 1.46875 v 1.46875 q 0.5625,-1.03125 1.03125,-1.35937 0.48437,-0.32813 1.0625,-0.32813 0.82812,0 1.6875,0.53125 l -0.5625,1.51563 q -0.60938,-0.35938 -1.20313,-0.35938 -0.54687,0 -0.96875,0.32813 -0.42187,0.32812 -0.60937,0.89062 -0.28125,0.875 -0.28125,1.92188 v 5.0625 z m 12.85327,-3.10938 1.6875,0.20313 q -0.40625,1.48437 -1.48437,2.3125 -1.07813,0.8125 -2.76563,0.8125 -2.125,0 -3.375,-1.29688 -1.23437,-1.3125 -1.23437,-3.67187 0,-2.45313 1.25,-3.79688 1.26562,-1.34375 3.26562,-1.34375 1.9375,0 3.15625,1.32813 1.23438,1.3125 1.23438,3.70312 0,0.15625 0,0.4375 h -7.21875 q 0.0937,1.59375 0.90625,2.45313 0.8125,0.84375 2.01562,0.84375 0.90625,0 1.54688,-0.46875 0.64062,-0.48438 1.01562,-1.51563 z m -5.39062,-2.65625 h 5.40625 q -0.10938,-1.21875 -0.625,-1.82812 -0.78125,-0.95313 -2.03125,-0.95313 -1.125,0 -1.90625,0.76563 -0.76563,0.75 -0.84375,2.01562 z"
       fill-rule="nonzero"
       id="path2012" />
  </g>
</svg>
